<?xml version="1.0" encoding="utf-8"?>
<!-- Generator: Adobe Illustrator 15.0.2, SVG Export Plug-In  -->
<!DOCTYPE svg PUBLIC "-//W3C//DTD SVG 1.1//EN" "http://www.w3.org/Graphics/SVG/1.1/DTD/svg11.dtd" [
	<!ENTITY ns_flows "http://ns.adobe.com/Flows/1.0/">
]>
<svg version="1.1"
	 xmlns="http://www.w3.org/2000/svg" xmlns:xlink="http://www.w3.org/1999/xlink" xmlns:a="http://ns.adobe.com/AdobeSVGViewerExtensions/3.0/"
	 x="0px" y="0px" width="128px" height="128px" viewBox="-1 -13.5 128 128"
	 overflow="visible" enable-background="new -1 -13.5 128 128" xml:space="preserve">
<defs>
</defs>
<path fill="#FFFFFF" d="M104.535,2.012 M104.535,0H20.948c-3.806,0-6.676,2.842-6.676,6.609v57.404L0.527,90.344
	C0.178,90.864-0.004,91.444,0,92.028l0.039,4.801l0.002,0.266l0.072,0.256C1.031,100.621,5.745,101,9.211,101h107.724
	c2.24,0,9.06,0,9.06-4.726v-3.911l0.002-0.146c0.01-0.423,0.025-1.186-0.488-1.915l-14.298-26.308l0.001-57.386
	C111.212,3.15,108.029,0,104.535,0L104.535,0z"/>
<g>
	<path fill="#4D4D4D" d="M123.816,91.422l-14.638-26.864l0.001-57.948c0-2.231-2.138-4.598-4.645-4.598H20.948
		c-2.401,0-4.644,1.648-4.644,4.598v57.948L2.246,91.422c-0.146,0.201-0.215,0.399-0.213,0.59l0.039,4.801
		c0.351,1.25,2.261,2.175,7.14,2.175h107.724c5.555,0,7.027-1.246,7.027-2.713v-3.911C123.963,91.98,124.011,91.661,123.816,91.422z
		 M62.741,3.499c0.855,0,1.55,0.687,1.55,1.533c0,0.846-0.693,1.532-1.55,1.532c-0.854,0-1.548-0.687-1.548-1.532
		C61.193,4.186,61.887,3.499,62.741,3.499z M20.562,7.448h84.359v55.529H20.562V7.448z M23.741,67.625h77.57l6.652,12.115H17.31
		L23.741,67.625z M58.718,94.303l-0.011-0.797h8.054l0.004,0.797H58.718z M77.385,89.37H48.969c-1.727,0-2.614-0.313-2.522-0.699
		l1.12-6.114c0.085-0.323,0.87-0.591,2.405-0.591h25.126c1.536,0,2.469,0.268,2.563,0.591l1.62,6.114
		C79.38,89.057,79.108,89.37,77.385,89.37z M107.817,94.168l-0.007-1.194h5.389l0.003,1.194H107.817z"/>
</g>
<linearGradient id="SVGID_1_" gradientUnits="userSpaceOnUse" x1="20.2495" y1="69.9082" x2="105.3838" y2="69.9082">
	<stop  offset="0" style="stop-color:#FFFFFF"/>
	<stop  offset="1" style="stop-color:#000000"/>
</linearGradient>
<line fill="url(#SVGID_1_)" stroke="#4D4D4D" stroke-miterlimit="10" x1="20.25" y1="69.908" x2="105.384" y2="69.908"/>
<linearGradient id="SVGID_2_" gradientUnits="userSpaceOnUse" x1="16.3799" y1="73.5068" x2="109.2529" y2="73.5068">
	<stop  offset="0" style="stop-color:#FFFFFF"/>
	<stop  offset="1" style="stop-color:#000000"/>
</linearGradient>
<line fill="url(#SVGID_2_)" stroke="#4D4D4D" stroke-miterlimit="10" x1="16.38" y1="73.507" x2="109.253" y2="73.507"/>
<linearGradient id="SVGID_3_" gradientUnits="userSpaceOnUse" x1="14.4453" y1="77.0752" x2="111.1885" y2="77.0752">
	<stop  offset="0" style="stop-color:#FFFFFF"/>
	<stop  offset="1" style="stop-color:#000000"/>
</linearGradient>
<line fill="url(#SVGID_3_)" stroke="#4D4D4D" stroke-miterlimit="10" x1="14.445" y1="77.075" x2="111.188" y2="77.075"/>
<linearGradient id="SVGID_4_" gradientUnits="userSpaceOnUse" x1="34.5664" y1="74.4121" x2="38.3174" y2="74.4121">
	<stop  offset="0" style="stop-color:#FFFFFF"/>
	<stop  offset="1" style="stop-color:#000000"/>
</linearGradient>
<line fill="url(#SVGID_4_)" stroke="#4D4D4D" stroke-miterlimit="10" x1="38.317" y1="67.625" x2="34.566" y2="81.199"/>
<linearGradient id="SVGID_5_" gradientUnits="userSpaceOnUse" x1="43.79" y1="74.4121" x2="46.1191" y2="74.4121">
	<stop  offset="0" style="stop-color:#FFFFFF"/>
	<stop  offset="1" style="stop-color:#000000"/>
</linearGradient>
<line fill="url(#SVGID_5_)" stroke="#4D4D4D" stroke-miterlimit="10" x1="46.119" y1="67.625" x2="43.79" y2="81.199"/>
<linearGradient id="SVGID_6_" gradientUnits="userSpaceOnUse" x1="52.8164" y1="74.4121" x2="54.1758" y2="74.4121">
	<stop  offset="0" style="stop-color:#FFFFFF"/>
	<stop  offset="1" style="stop-color:#000000"/>
</linearGradient>
<line fill="url(#SVGID_6_)" stroke="#4D4D4D" stroke-miterlimit="10" x1="54.176" y1="67.625" x2="52.816" y2="81.199"/>
<linearGradient id="SVGID_7_" gradientUnits="userSpaceOnUse" x1="25.7036" y1="74.4121" x2="30.5786" y2="74.4121">
	<stop  offset="0" style="stop-color:#FFFFFF"/>
	<stop  offset="1" style="stop-color:#000000"/>
</linearGradient>
<line fill="url(#SVGID_7_)" stroke="#4D4D4D" stroke-miterlimit="10" x1="30.579" y1="67.625" x2="25.704" y2="81.199"/>
<linearGradient id="SVGID_8_" gradientUnits="userSpaceOnUse" x1="87.2236" y1="74.4121" x2="90.9746" y2="74.4121">
	<stop  offset="0" style="stop-color:#FFFFFF"/>
	<stop  offset="1" style="stop-color:#000000"/>
</linearGradient>
<line fill="url(#SVGID_8_)" stroke="#4D4D4D" stroke-miterlimit="10" x1="87.224" y1="67.625" x2="90.975" y2="81.199"/>
<linearGradient id="SVGID_9_" gradientUnits="userSpaceOnUse" x1="79.4219" y1="74.4121" x2="81.75" y2="74.4121">
	<stop  offset="0" style="stop-color:#FFFFFF"/>
	<stop  offset="1" style="stop-color:#000000"/>
</linearGradient>
<line fill="url(#SVGID_9_)" stroke="#4D4D4D" stroke-miterlimit="10" x1="79.422" y1="67.625" x2="81.75" y2="81.199"/>
<linearGradient id="SVGID_10_" gradientUnits="userSpaceOnUse" x1="71.3662" y1="74.4121" x2="72.7236" y2="74.4121">
	<stop  offset="0" style="stop-color:#FFFFFF"/>
	<stop  offset="1" style="stop-color:#000000"/>
</linearGradient>
<line fill="url(#SVGID_10_)" stroke="#4D4D4D" stroke-miterlimit="10" x1="71.366" y1="67.625" x2="72.724" y2="81.199"/>
<linearGradient id="SVGID_11_" gradientUnits="userSpaceOnUse" x1="94.9629" y1="74.4121" x2="99.8379" y2="74.4121">
	<stop  offset="0" style="stop-color:#FFFFFF"/>
	<stop  offset="1" style="stop-color:#000000"/>
</linearGradient>
<line fill="url(#SVGID_11_)" stroke="#4D4D4D" stroke-miterlimit="10" x1="94.963" y1="67.625" x2="99.838" y2="81.199"/>
<linearGradient id="SVGID_12_" gradientUnits="userSpaceOnUse" x1="62.7373" y1="73.6826" x2="62.7373" y2="73.6826">
	<stop  offset="0" style="stop-color:#FFFFFF"/>
	<stop  offset="1" style="stop-color:#000000"/>
</linearGradient>
<line fill="url(#SVGID_12_)" stroke="#4D4D4D" stroke-miterlimit="10" x1="62.737" y1="67.625" x2="62.737" y2="79.74"/>
<path fill="#999999" stroke="#4D4D4D" stroke-linejoin="round" stroke-miterlimit="10" d="M35.119,40.16
	c-2.507,0-3.306,1.174-3.655,1.732c-0.352,0.561-0.538,2.096-0.365,3.506c-0.289-0.086-0.464,0.216-0.464,0.216
	s-0.048,0.542-0.048,0.788c0,1.5,1.489,1.731,1.489,3.237c0,0.813,0-0.028,0,1.264c0,1.803-3.509,1.846-5.184,3.526
	c-1.076,1.08-1.366,1.922-1.769,2.864c-0.367,0.864-0.796,5.521-0.865,6.285c-0.007,0.069,10.845,0.046,10.861,0.046
	c0.016,0,10.865,0.023,10.859-0.046c-0.067-0.765-0.497-5.421-0.864-6.285c-0.401-0.942-0.692-1.784-1.768-2.864
	c-1.676-1.681-5.186-1.724-5.186-3.526c0-1.292,0-0.45,0-1.264c0-1.506,1.488-1.737,1.488-3.237c0-0.246-0.046-0.788-0.046-0.788
	s-0.176-0.302-0.465-0.216c0.172-1.41-0.015-2.945-0.365-3.506C38.425,41.334,37.627,40.16,35.119,40.16"/>
<path fill="#999999" stroke="#4D4D4D" stroke-linejoin="round" stroke-miterlimit="10" d="M62.742,40.16
	c-2.507,0-3.306,1.174-3.655,1.732c-0.351,0.561-0.537,2.096-0.365,3.506c-0.289-0.086-0.464,0.216-0.464,0.216
	s-0.046,0.542-0.046,0.788c0,1.5,1.488,1.731,1.488,3.237c0,0.813,0-0.028,0,1.264c0,1.803-3.511,1.846-5.187,3.526
	c-1.074,1.08-1.365,1.922-1.767,2.864c-0.368,0.864-0.799,5.521-0.865,6.285c-0.007,0.069,10.845,0.046,10.861,0.046
	c0.015,0,10.865,0.023,10.859-0.046c-0.067-0.765-0.497-5.421-0.864-6.285c-0.402-0.942-0.692-1.784-1.768-2.864
	c-1.676-1.681-5.187-1.724-5.187-3.526c0-1.292,0-0.45,0-1.264c0-1.506,1.489-1.737,1.489-3.237c0-0.246-0.047-0.788-0.047-0.788
	s-0.175-0.302-0.465-0.216c0.173-1.41-0.014-2.945-0.364-3.506C66.048,41.334,65.25,40.16,62.742,40.16"/>
<path fill="#999999" stroke="#4D4D4D" stroke-linejoin="round" stroke-miterlimit="10" d="M90.365,40.16
	c-2.506,0-3.305,1.174-3.656,1.732c-0.35,0.561-0.536,2.096-0.365,3.506c-0.288-0.086-0.464,0.216-0.464,0.216
	s-0.046,0.542-0.046,0.788c0,1.5,1.488,1.731,1.488,3.237c0,0.813,0-0.028,0,1.264c0,1.803-3.51,1.846-5.184,3.526
	c-1.076,1.08-1.367,1.922-1.77,2.864c-0.367,0.864-0.797,5.521-0.865,6.285c-0.006,0.069,10.845,0.046,10.862,0.046
	c0.016,0,10.865,0.023,10.859-0.046c-0.068-0.765-0.497-5.421-0.864-6.285c-0.402-0.942-0.693-1.784-1.77-2.864
	c-1.674-1.681-5.185-1.724-5.185-3.526c0-1.292,0-0.45,0-1.264c0-1.506,1.489-1.737,1.489-3.237c0-0.246-0.047-0.788-0.047-0.788
	s-0.175-0.302-0.464-0.216c0.172-1.41-0.015-2.945-0.365-3.506c-0.35-0.559-1.148-1.732-3.653-1.732"/>
<path fill="#999999" stroke="#4D4D4D" stroke-linejoin="round" stroke-miterlimit="10" d="M87.021,16.296
	c-0.931-1.045-2.261-1.701-3.744-1.701c-0.507,0-0.993,0.079-1.455,0.22c-0.66-3.366-3.543-5.901-6.999-5.901
	c-2.737,0-5.114,1.593-6.312,3.928c-1.224-0.632-2.6-0.996-4.061-0.996c-0.53,0-1.047,0.057-1.552,0.147
	c-1.293-1.661-3.272-2.728-5.497-2.728c-1.736,0-3.325,0.651-4.556,1.728c-1.05-1.099-2.51-1.781-4.124-1.781
	c-3.08,0-5.593,2.481-5.778,5.614c-0.896-0.657-1.987-1.046-3.171-1.046c-3.03,0-5.487,4.575-5.487,7.704
	c0,0.557,0.08,1.094,0.224,1.6c-0.837,0.959-1.351,2.224-1.351,3.615c0,2.982,2.343,5.403,5.233,5.403
	c0.925,0,1.792-0.252,2.544-0.683c0.538,0.693,1.183,1.296,1.902,1.79c-0.126,3.362-3.172,8.159-3.172,8.159s6.22-1.919,9.163-6.912
	c1.408-0.272,2.687-0.919,3.74-1.832c0.69,0.309,1.451,0.485,2.253,0.485c1.775,0,3.357-0.851,4.389-2.179
	c1.482,1.082,3.287,1.724,5.239,1.724c0.368,0,0.726-0.028,1.081-0.073c0.03,2.905-0.467,5.906-0.467,5.906s3.504-2.806,5.364-7.888
	c1.282,1.94,3.348,3.275,5.733,3.519c2.885,5.164,9.288,7.151,9.288,7.151s-3.591-5.461-3.166-8.798
	c0.047-0.248,0.113-0.459,0.185-0.551c0.073-0.096,0.384-0.449,0.815-1.05c0.804,0.375,1.693,0.591,2.635,0.591
	c3.538,0,6.408-2.962,6.408-6.615C92.327,21.581,90.033,16.838,87.021,16.296z"/>
<ellipse fill="#666666" cx="55.089" cy="22.758" rx="2.507" ry="2.482"/>
<ellipse fill="#666666" cx="62.828" cy="22.758" rx="2.507" ry="2.482"/>
<ellipse fill="#666666" cx="70.567" cy="22.758" rx="2.508" ry="2.482"/>
</svg>
