<?xml version="1.0" encoding="utf-8"?>
<!-- Generator: Adobe Illustrator 15.0.2, SVG Export Plug-In  -->
<!DOCTYPE svg PUBLIC "-//W3C//DTD SVG 1.1//EN" "http://www.w3.org/Graphics/SVG/1.1/DTD/svg11.dtd" [
	<!ENTITY ns_flows "http://ns.adobe.com/Flows/1.0/">
]>
<svg version="1.1"
	 xmlns="http://www.w3.org/2000/svg" xmlns:xlink="http://www.w3.org/1999/xlink" xmlns:a="http://ns.adobe.com/AdobeSVGViewerExtensions/3.0/"
	 x="0px" y="0px" width="44px" height="58px" viewBox="-0.236 -0.946 44 58"
	 overflow="visible" enable-background="new -0.236 -0.946 44 58" xml:space="preserve">
<defs>
</defs>
<path fill="#FFFFFF" d="M21.748,0C12.6,0,5.157,7.023,5.157,15.656v5.533C1.451,22.113,0,25.242,0,29.328V47.91
	c0,5.321,3.319,8.334,9.048,8.334h25.626c5.506,0,8.819-3.1,8.819-8.334V29.328c0-4.219-1.401-7.31-5.149-8.175v-5.497
	C38.344,7.023,30.898,0,21.748,0L21.748,0z M17.622,20.923v-5.078c0-1.813,1.85-3.289,4.122-3.289c2.275,0,4.127,1.475,4.127,3.289
	v5.078H17.622L17.622,20.923z"/>
<path fill="#333333" d="M36.344,22.911v-7.255C36.344,8.126,29.796,2,21.748,2C13.703,2,7.157,8.126,7.157,15.656v7.259
	C3.459,23.068,2,25.606,2,29.328V47.91c0,4.25,2.385,6.334,7.048,6.334h25.626c4.385,0,6.819-2.222,6.819-6.334V29.328
	C41.493,25.503,40.088,23.005,36.344,22.911z M15.622,15.845c0-2.916,2.746-5.289,6.122-5.289c3.379,0,6.127,2.373,6.127,5.289
	v7.078H15.622V15.845z"/>
<path fill="#B3B3B3" d="M34.674,52.244H9.048C5.488,52.244,4,51.05,4,47.91V29.328c0-2.897,0.95-4.42,3.515-4.42h1.643v-9.252
	C9.157,9.229,14.805,4,21.748,4c6.945,0,12.596,5.229,12.596,11.656v9.252h1.778c2.735,0,3.371,1.596,3.371,4.42V47.91
	C39.493,50.901,37.938,52.244,34.674,52.244z M21.748,8.469c-4.479,0-8.122,3.27-8.122,7.288v9.079h16.249v-9.079
	C29.875,11.738,26.229,8.469,21.748,8.469z"/>
<path fill="#808080" d="M34.674,52.244H9.048C5.488,52.244,4,51.05,4,47.91V29.328c0-2.897,0.95-4.42,3.515-4.42h1.643h25.187h1.778
	c2.735,0,3.371,1.596,3.371,4.42V47.91C39.493,50.901,37.938,52.244,34.674,52.244z"/>
<line fill="none" stroke="#333333" stroke-width="2" x1="8.092" y1="23.904" x2="35.514" y2="23.904"/>
<path fill="#FFFFFF" d="M25.294,36.163c0-1.833-1.486-3.496-3.549-3.496c-2.061,0-3.545,1.663-3.545,3.496
	c0,1.425,0.845,2.755,2.242,3.258c0.074,0.027,0.228,0.078,0.204,0.242s-1.061,7.496-1.061,7.496s-0.086,0.277,0.147,0.277
	s3.765,0,3.999,0s0.177-0.245,0.177-0.245s-1.026-7.393-1.062-7.522s0.124-0.219,0.196-0.245
	C24.443,38.923,25.293,37.59,25.294,36.163z"/>
</svg>
