<?xml version="1.0" encoding="utf-8"?>
<!-- Generator: Adobe Illustrator 15.0.2, SVG Export Plug-In  -->
<!DOCTYPE svg PUBLIC "-//W3C//DTD SVG 1.1//EN" "http://www.w3.org/Graphics/SVG/1.1/DTD/svg11.dtd" [
	<!ENTITY ns_flows "http://ns.adobe.com/Flows/1.0/">
]>
<svg version="1.1"
	 xmlns="http://www.w3.org/2000/svg" xmlns:xlink="http://www.w3.org/1999/xlink" xmlns:a="http://ns.adobe.com/AdobeSVGViewerExtensions/3.0/"
	 x="0px" y="0px" width="70px" height="87px" viewBox="-0.315 -0.546 70 87"
	 overflow="visible" enable-background="new -0.315 -0.546 70 87" xml:space="preserve">
<defs>
</defs>
<path fill="#333333" d="M10.763,13.765c-0.202,0-0.403-0.079-0.554-0.235c-0.287-0.301-0.282-0.776,0.013-1.07L22.488,0.223
	C22.633,0.081,22.826,0,23.028,0h0.001c0.203,0,0.396,0.082,0.541,0.225l12.204,12.236c0.294,0.295,0.298,0.771,0.007,1.07
	c-0.288,0.299-0.765,0.312-1.071,0.028c-0.042-0.041-4.373-3-11.682-3c-7.313,0-11.704,2.963-11.748,3.002
	C11.134,13.697,10.947,13.765,10.763,13.765z"/>
<path fill="#808080" d="M23.026,2.512l6.887,6.904c-1.917-0.495-4.232-0.856-6.885-0.856c-2.66,0-5.005,0.375-6.951,0.883
	L23.026,2.512"/>
<path fill="#333333" d="M11.28,60.205c0.044,0.04,4.435,3.003,11.748,3.003c7.309,0,11.64-2.959,11.682-3
	c0.307-0.285,0.783-0.271,1.071,0.027c0.291,0.301,0.287,0.775-0.007,1.07L23.57,73.542c-0.145,0.144-0.338,0.225-0.541,0.225
	h-0.001c-0.202,0-0.396-0.08-0.54-0.223L10.222,61.308c-0.295-0.294-0.3-0.77-0.013-1.07c0.15-0.156,0.352-0.234,0.554-0.234
	C10.947,60.003,11.134,60.069,11.28,60.205z"/>
<path fill="#808080" d="M23.026,71.255l-6.949-6.931c1.946,0.509,4.291,0.884,6.951,0.884c2.652,0,4.968-0.361,6.885-0.857
	L23.026,71.255"/>
<path fill="#333333" d="M39.741,21.121c-8.691-9.236-23.276-9.679-32.513-0.988c-9.237,8.691-9.681,23.275-0.989,32.512
	c7.883,8.378,20.598,9.537,29.79,3.19c0.047,0.062,0.159,0.17,0.159,0.17l7.135,7.582c-1.275,1.896-0.503,3.127-0.033,3.626
	l17.108,18.185c0.757,0.803,2.023,0.842,2.827,0.085L69.052,80c0.804-0.757,0.844-2.022,0.087-2.827L52.029,58.991
	c-0.556-0.592-1.687-1.25-3.593-0.156l-7.165-7.614c0,0-0.099-0.119-0.158-0.169C48.008,42.263,47.624,29.5,39.741,21.121z"/>
<radialGradient id="SVGID_1_" cx="22.9893" cy="36.8838" r="20.9995" gradientUnits="userSpaceOnUse">
	<stop  offset="0" style="stop-color:#FFFFFF"/>
	<stop  offset="0.2476" style="stop-color:#FBFBFB"/>
	<stop  offset="0.4684" style="stop-color:#F1F1F1"/>
	<stop  offset="0.679" style="stop-color:#DEDEDE"/>
	<stop  offset="0.8822" style="stop-color:#C5C5C5"/>
	<stop  offset="1" style="stop-color:#B3B3B3"/>
</radialGradient>
<circle fill="url(#SVGID_1_)" cx="22.989" cy="36.884" r="21"/>
<path fill="#808080" d="M67.681,78.544l-5.825,5.481c0,0-16.51-17.545-17.109-18.183c-0.601-0.638,1.28-2.303,1.28-2.303
	l-8.382-8.907l2.171-2.042l8.381,8.908c0,0,1.861-1.686,2.376-1.139S67.681,78.544,67.681,78.544z"/>
<path fill="none" stroke="#F2F2F2" stroke-width="3" stroke-linecap="round" stroke-linejoin="round" d="M38.497,34.548
	c0-6.114-6.977-13.062-13.125-13.062"/>
</svg>
