<?xml version="1.0" encoding="utf-8"?>
<!-- Generator: Adobe Illustrator 15.0.2, SVG Export Plug-In  -->
<!DOCTYPE svg PUBLIC "-//W3C//DTD SVG 1.1//EN" "http://www.w3.org/Graphics/SVG/1.1/DTD/svg11.dtd" [
	<!ENTITY ns_flows "http://ns.adobe.com/Flows/1.0/">
]>
<svg version="1.1"
	 xmlns="http://www.w3.org/2000/svg" xmlns:xlink="http://www.w3.org/1999/xlink" xmlns:a="http://ns.adobe.com/AdobeSVGViewerExtensions/3.0/"
	 x="0px" y="0px" width="128px" height="128px" viewBox="-13.888 -6.5 128 128"
	 overflow="visible" enable-background="new -13.888 -6.5 128 128" xml:space="preserve">
<defs>
</defs>
<path fill="#FFFFFF" d="M86.055,5.283c-0.756-0.756-1.761-1.173-2.83-1.173c-1.066,0-2.07,0.415-2.826,1.168
	c-0.971,0.969-1.336,2.315-1.103,3.571l-3.014,2.583c-0.425-0.15-0.875-0.23-1.331-0.23c-1.204,0-2.331,0.534-3.094,1.464
	c-0.677,0.824-0.992,1.865-0.888,2.928c0.012,0.114,0.046,0.222,0.066,0.333l-3.048,2.611c-0.444-0.164-0.884-0.245-1.312-0.245
	c-1.021,0-1.993,0.385-2.737,1.083c-0.512,0.48-0.85,1.07-1.05,1.695c-0.25-7.527-3.365-12.162-8.72-13.037
	c-0.105-1.714-0.384-4.144-1.122-5.165l-0.051-0.071C52.452,2.033,51.005,0,46.894,0c-2.75,0-4.889,0.926-6.356,2.753
	c-0.725,0.903-1.034,3.339-1.164,5.108H12.962c-3.305,0-6.325,1.325-8.734,3.833c-2.709,2.818-4.364,6.998-4.219,10.648
	c0.09,2.237,0.408,17.169,1.417,75.606L1.455,99.6C1.631,109.71,7.793,115,13.789,115h33.897c6.753,0,14.075-4.953,14.194-15.827
	c0.045-4.07,0.229-17.252,0.426-31.207c0.077-5.483,0.157-11.163,0.232-16.587c0.274,0.776,0.706,1.547,1.39,2.187
	c0.75,0.701,1.722,1.094,2.748,1.094c0.452,0,0.894-0.096,1.314-0.243l3.044,2.608c-0.02,0.107-0.053,0.211-0.064,0.321
	c-0.107,1.063,0.205,2.104,0.881,2.933c0.76,0.935,1.891,1.472,3.1,1.472c0.456,0,0.906-0.079,1.332-0.23l3.014,2.583
	c-0.233,1.253,0.131,2.598,1.097,3.565c0.759,0.758,1.764,1.174,2.831,1.174c1.066,0,2.07-0.415,2.824-1.169
	c0.578-0.576,14.176-14.332,14.176-31.173C100.225,19.672,86.633,5.862,86.055,5.283z M62.902,23.692
	c0-0.041,0.001-0.082,0.001-0.121c0.011,0.029,0.015,0.061,0.025,0.09L62.902,23.692z"/>
<path fill="#4D4D4D" d="M66.677,52.659c-0.493,0-0.987-0.182-1.374-0.547c-0.803-0.759-0.838-2.024-0.079-2.827
	c0.059-0.062,5.973-6.421,5.973-12.785c0-6.399-5.917-12.775-5.978-12.838c-0.756-0.805-0.716-2.071,0.089-2.827
	c0.807-0.756,2.072-0.715,2.827,0.089c0.288,0.307,7.062,7.611,7.062,15.577c0,7.97-6.777,15.229-7.066,15.533
	C67.736,52.449,67.207,52.659,66.677,52.659z"/>
<path fill="#4D4D4D" d="M74.951,59.75c-0.58,0-1.155-0.251-1.551-0.736c-0.698-0.855-0.57-2.115,0.286-2.813
	c0.083-0.068,8.719-7.33,8.719-19.7c0-12.45-8.637-19.681-8.724-19.753c-0.854-0.701-0.978-1.961-0.277-2.814
	c0.7-0.854,1.961-0.979,2.814-0.277c0.416,0.341,10.187,8.524,10.187,22.845c0,14.324-9.774,22.461-10.19,22.8
	C75.843,59.603,75.396,59.75,74.951,59.75z"/>
<path fill="#4D4D4D" d="M83.225,66.842c-0.512,0-1.024-0.196-1.415-0.587c-0.78-0.781-0.779-2.047,0.001-2.828
	c0.124-0.124,12.414-12.588,12.414-26.927c0-14.381-12.292-26.853-12.416-26.977c-0.78-0.782-0.779-2.048,0.002-2.829
	c0.782-0.78,2.049-0.78,2.828,0.001C85.193,7.251,98.225,20.481,98.225,36.5c0,16.021-13.033,29.204-13.589,29.758
	C84.246,66.647,83.735,66.842,83.225,66.842z"/>
<path fill="#4D4D4D" d="M52.233,9.883c0-2.332-0.36-5.224-0.807-5.841C50.98,3.424,50.111,2,46.894,2
	c-3.217,0-4.451,1.575-4.809,2.02c-0.356,0.444-0.807,3.519-0.807,5.842c-0.571,0-21.289,0-28.316,0S1.801,17.095,2.007,22.263
	c0.207,5.167,1.286,67.989,1.447,77.303C3.616,108.878,9.242,113,13.789,113s28.316,0,33.897,0c5.58,0,12.086-3.928,12.194-13.849
	s1.033-72.546,1.033-77.096C60.914,17.507,59.881,9.883,52.233,9.883z M17.956,97.08h-4.467c-1.598,0-2.893-1.296-2.893-2.893
	c0-1.598,1.295-2.894,2.893-2.894h4.467c1.598,0,2.894,1.296,2.894,2.894C20.85,95.784,19.554,97.08,17.956,97.08z M17.956,85.784
	h-4.467c-1.598,0-2.893-1.296-2.893-2.893c0-1.599,1.295-2.894,2.893-2.894h4.467c1.598,0,2.894,1.295,2.894,2.894
	C20.85,84.488,19.554,85.784,17.956,85.784z M17.956,74.488h-4.467c-1.598,0-2.893-1.296-2.893-2.893
	c0-1.599,1.295-2.894,2.893-2.894h4.467c1.598,0,2.894,1.295,2.894,2.894C20.85,73.192,19.554,74.488,17.956,74.488z M38.5,107.444
	H24.415c-3.305,0-3.564-0.902-3.564-2.015s0.26-2.014,3.564-2.014H38.5c3.305,0,3.564,0.901,3.564,2.014
	S41.805,107.444,38.5,107.444z M28.819,79.998h4.468c1.598,0,2.893,1.295,2.893,2.894c0,1.597-1.295,2.893-2.893,2.893h-4.468
	c-1.598,0-2.893-1.296-2.893-2.893C25.927,81.293,27.222,79.998,28.819,79.998z M25.927,71.596c0-1.599,1.295-2.894,2.893-2.894
	h4.468c1.598,0,2.893,1.295,2.893,2.894c0,1.597-1.295,2.893-2.893,2.893h-4.468C27.222,74.488,25.927,73.192,25.927,71.596z
	 M28.819,91.294h4.468c1.598,0,2.893,1.296,2.893,2.894c0,1.597-1.295,2.893-2.893,2.893h-4.468c-1.598,0-2.893-1.296-2.893-2.893
	C25.927,92.59,27.222,91.294,28.819,91.294z M49.424,97.08h-4.467c-1.598,0-2.894-1.296-2.894-2.893
	c0-1.598,1.296-2.894,2.894-2.894h4.467c1.598,0,2.894,1.296,2.894,2.894C52.317,95.784,51.021,97.08,49.424,97.08z M49.424,85.784
	h-4.467c-1.598,0-2.894-1.296-2.894-2.893c0-1.599,1.296-2.894,2.894-2.894h4.467c1.598,0,2.894,1.295,2.894,2.894
	C52.317,84.488,51.021,85.784,49.424,85.784z M49.424,74.488h-4.467c-1.598,0-2.894-1.296-2.894-2.893
	c0-1.599,1.296-2.894,2.894-2.894h4.467c1.598,0,2.894,1.295,2.894,2.894C52.317,73.192,51.021,74.488,49.424,74.488z
	 M53.986,53.851c0,5.348-4.335,9.683-9.682,9.683H18.61c-5.348,0-9.683-4.335-9.683-9.683V26.157c0-5.347,4.335-9.683,9.683-9.683
	h25.694c5.347,0,9.682,4.336,9.682,9.683V53.851z"/>
<path fill="#999999" stroke="#4D4D4D" stroke-width="2" stroke-linejoin="round" stroke-miterlimit="10" d="M31.458,27.475
	c-3.844,0-5.069,1.801-5.608,2.658c-0.536,0.859-0.823,3.214-0.561,5.378c-0.442-0.133-0.712,0.33-0.712,0.33
	s-0.069,0.83-0.069,1.208c0,2.302,2.282,2.657,2.282,4.966c0,1.248,0-0.043,0,1.938c0,2.766-5.383,2.832-7.951,5.41
	c-1.651,1.656-2.098,2.947-2.715,4.393c-0.563,1.326-1.222,8.469-1.326,9.643c-0.01,0.105,16.634,0.07,16.661,0.07
	c0.024,0,16.667,0.035,16.658-0.07c-0.105-1.174-0.764-8.316-1.326-9.643c-0.617-1.445-1.063-2.736-2.715-4.393
	c-2.566-2.578-7.952-2.645-7.952-5.41c0-1.981,0-0.69,0-1.938c0-2.309,2.285-2.664,2.285-4.966c0-0.378-0.073-1.208-0.073-1.208
	s-0.268-0.463-0.71-0.33c0.262-2.164-0.023-4.519-0.561-5.378c-0.537-0.857-1.762-2.658-5.605-2.658"/>
</svg>
