<?xml version="1.0" encoding="utf-8"?>
<!-- Generator: Adobe Illustrator 15.0.2, SVG Export Plug-In  -->
<!DOCTYPE svg PUBLIC "-//W3C//DTD SVG 1.1//EN" "http://www.w3.org/Graphics/SVG/1.1/DTD/svg11.dtd" [
	<!ENTITY ns_flows "http://ns.adobe.com/Flows/1.0/">
]>
<svg version="1.1"
	 xmlns="http://www.w3.org/2000/svg" xmlns:xlink="http://www.w3.org/1999/xlink" xmlns:a="http://ns.adobe.com/AdobeSVGViewerExtensions/3.0/"
	 x="0px" y="0px" width="101px" height="116px" viewBox="-1 -0.5 101 116"
	 overflow="visible" enable-background="new -1 -0.5 101 116" xml:space="preserve">
<defs>
</defs>
<path fill="#9CCEFF" d="M85.861,5.283c-0.754-0.756-1.756-1.173-2.822-1.173c-1.064,0-2.066,0.415-2.82,1.168
	c-0.969,0.969-1.334,2.315-1.1,3.571l-3.008,2.583c-0.424-0.15-0.873-0.23-1.328-0.23c-1.201,0-2.326,0.534-3.086,1.464
	c-0.676,0.824-0.991,1.865-0.887,2.928c0.012,0.114,0.046,0.222,0.066,0.333l-3.041,2.611c-0.443-0.164-0.882-0.245-1.309-0.245
	c-1.019,0-1.988,0.385-2.73,1.083c-0.512,0.48-0.848,1.07-1.048,1.695c-0.249-7.527-3.357-12.162-8.7-13.037
	c-0.105-1.714-0.383-4.144-1.12-5.165l-0.05-0.071C52.334,2.033,50.891,0,46.789,0c-2.744,0-4.878,0.926-6.343,2.753
	c-0.724,0.903-1.031,3.339-1.161,5.108H12.934c-3.298,0-6.312,1.325-8.715,3.833c-2.703,2.818-4.354,6.998-4.209,10.648
	c0.09,2.237,0.408,17.169,1.415,75.606L1.452,99.6C1.627,109.71,7.776,115,13.759,115H47.58c6.738,0,14.043-4.953,14.162-15.827
	c0.045-4.07,0.229-17.252,0.426-31.207c0.076-5.483,0.156-11.163,0.231-16.587c0.274,0.775,0.704,1.547,1.386,2.187
	c0.748,0.701,1.719,1.094,2.742,1.094c0.451,0,0.892-0.096,1.312-0.243l3.037,2.608c-0.02,0.107-0.054,0.211-0.064,0.321
	c-0.108,1.063,0.203,2.104,0.878,2.933c0.759,0.935,1.887,1.472,3.093,1.472c0.455,0,0.904-0.079,1.329-0.23l3.007,2.583
	c-0.232,1.253,0.131,2.598,1.095,3.565c0.757,0.758,1.76,1.174,2.825,1.174c1.063,0,2.064-0.415,2.817-1.169
	C86.434,67.097,100,53.341,100,36.5C100,19.672,86.439,5.862,85.861,5.283z"/>
<path fill="#4D4D4D" d="M66.527,52.659c-0.492,0-0.985-0.182-1.371-0.547c-0.801-0.759-0.836-2.024-0.078-2.827
	c0.058-0.062,5.959-6.421,5.959-12.785c0-6.399-5.904-12.775-5.964-12.838c-0.755-0.805-0.715-2.071,0.089-2.827
	s2.066-0.715,2.82,0.089c0.287,0.307,7.046,7.611,7.046,15.577c0,7.97-6.763,15.229-7.051,15.533
	C67.585,52.449,67.057,52.659,66.527,52.659z"/>
<path fill="#4D4D4D" d="M74.783,59.75c-0.578,0-1.152-0.251-1.547-0.736c-0.697-0.855-0.569-2.115,0.285-2.813
	c0.083-0.068,8.699-7.33,8.699-19.7c0-12.45-8.617-19.681-8.704-19.753c-0.852-0.701-0.976-1.961-0.276-2.814
	c0.698-0.854,1.956-0.979,2.809-0.277c0.414,0.341,10.163,8.524,10.163,22.845c0,14.324-9.753,22.461-10.168,22.8
	C75.674,59.603,75.227,59.75,74.783,59.75z"/>
<path fill="#4D4D4D" d="M83.039,66.842c-0.512,0-1.023-0.196-1.413-0.587c-0.778-0.781-0.777-2.047,0.001-2.828
	c0.124-0.124,12.387-12.588,12.387-26.927c0-14.381-12.264-26.853-12.389-26.977c-0.778-0.782-0.777-2.048,0.002-2.829
	c0.781-0.78,2.045-0.78,2.822,0.001C85.003,7.251,98.005,20.481,98.005,36.5c0,16.021-13.005,29.204-13.559,29.758
	C84.057,66.647,83.548,66.842,83.039,66.842z"/>
<path fill="#4D4D4D" d="M52.117,9.883c0-2.332-0.359-5.224-0.805-5.841C50.867,3.424,50,2,46.789,2c-3.209,0-4.441,1.575-4.798,2.02
	c-0.355,0.444-0.805,3.519-0.805,5.842c-0.57,0-21.241,0-28.253,0S1.797,17.095,2.003,22.263c0.207,5.167,1.283,67.989,1.444,77.303
	C3.609,108.878,9.222,113,13.759,113s28.253,0,33.821,0c5.567,0,12.059-3.928,12.167-13.849s1.03-72.546,1.03-77.096
	C60.777,17.507,59.747,9.883,52.117,9.883z M17.917,97.08H13.46c-1.594,0-2.886-1.296-2.886-2.893c0-1.598,1.292-2.894,2.886-2.894
	h4.457c1.594,0,2.887,1.296,2.887,2.894C20.804,95.784,19.511,97.08,17.917,97.08z M17.917,85.784H13.46
	c-1.594,0-2.886-1.296-2.886-2.893c0-1.599,1.292-2.894,2.886-2.894h4.457c1.594,0,2.887,1.295,2.887,2.894
	C20.804,84.488,19.511,85.784,17.917,85.784z M17.917,74.488H13.46c-1.594,0-2.886-1.296-2.886-2.893
	c0-1.599,1.292-2.894,2.886-2.894h4.457c1.594,0,2.887,1.295,2.887,2.894C20.804,73.192,19.511,74.488,17.917,74.488z
	 M38.414,107.444H24.36c-3.298,0-3.556-0.902-3.556-2.015s0.258-2.014,3.556-2.014h14.054c3.297,0,3.557,0.901,3.557,2.014
	S41.711,107.444,38.414,107.444z M28.756,79.998h4.457c1.594,0,2.887,1.295,2.887,2.894c0,1.597-1.293,2.893-2.887,2.893h-4.457
	c-1.595,0-2.887-1.296-2.887-2.893C25.869,81.293,27.161,79.998,28.756,79.998z M25.869,71.596c0-1.599,1.292-2.894,2.887-2.894
	h4.457c1.594,0,2.887,1.295,2.887,2.894c0,1.597-1.293,2.893-2.887,2.893h-4.457C27.161,74.488,25.869,73.192,25.869,71.596z
	 M28.756,91.294h4.457c1.594,0,2.887,1.296,2.887,2.894c0,1.597-1.293,2.893-2.887,2.893h-4.457c-1.595,0-2.887-1.296-2.887-2.893
	C25.869,92.59,27.161,91.294,28.756,91.294z M49.313,97.08h-4.456c-1.595,0-2.888-1.296-2.888-2.893
	c0-1.598,1.293-2.894,2.888-2.894h4.456c1.595,0,2.888,1.296,2.888,2.894C52.201,95.784,50.908,97.08,49.313,97.08z M49.313,85.784
	h-4.456c-1.595,0-2.888-1.296-2.888-2.893c0-1.599,1.293-2.894,2.888-2.894h4.456c1.595,0,2.888,1.295,2.888,2.894
	C52.201,84.488,50.908,85.784,49.313,85.784z M49.313,74.488h-4.456c-1.595,0-2.888-1.296-2.888-2.893
	c0-1.599,1.293-2.894,2.888-2.894h4.456c1.595,0,2.888,1.295,2.888,2.894C52.201,73.192,50.908,74.488,49.313,74.488z
	 M53.865,53.851c0,5.348-4.324,9.683-9.659,9.683H18.569c-5.336,0-9.661-4.335-9.661-9.683V26.157c0-5.347,4.325-9.683,9.661-9.683
	h25.637c5.335,0,9.659,4.336,9.659,9.683V53.851z"/>
<path fill="#999999" stroke="#4D4D4D" stroke-width="2" stroke-linejoin="round" stroke-miterlimit="10" d="M31.389,27.475
	c-3.836,0-5.059,1.801-5.597,2.658c-0.535,0.859-0.821,3.214-0.56,5.378c-0.441-0.133-0.71,0.33-0.71,0.33s-0.069,0.83-0.069,1.208
	c0,2.302,2.277,2.657,2.277,4.966c0,1.248,0-0.043,0,1.938c0,2.766-5.371,2.832-7.934,5.41c-1.647,1.656-2.093,2.947-2.708,4.393
	c-0.562,1.326-1.219,8.469-1.324,9.643c-0.009,0.105,16.597,0.07,16.624,0.07c0.025,0,16.63,0.035,16.621-0.07
	c-0.105-1.174-0.762-8.316-1.323-9.643c-0.616-1.445-1.062-2.736-2.708-4.393c-2.561-2.578-7.936-2.645-7.936-5.41
	c0-1.981,0-0.69,0-1.938c0-2.309,2.28-2.664,2.28-4.966c0-0.378-0.073-1.208-0.073-1.208s-0.267-0.463-0.709-0.33
	c0.262-2.164-0.022-4.519-0.559-5.378c-0.535-0.857-1.758-2.658-5.592-2.658"/>
</svg>
