<?xml version="1.0" encoding="utf-8"?>
<!-- Generator: Adobe Illustrator 15.0.2, SVG Export Plug-In  -->
<!DOCTYPE svg PUBLIC "-//W3C//DTD SVG 1.1//EN" "http://www.w3.org/Graphics/SVG/1.1/DTD/svg11.dtd" [
	<!ENTITY ns_flows "http://ns.adobe.com/Flows/1.0/">
]>
<svg version="1.1"
	 xmlns="http://www.w3.org/2000/svg" xmlns:xlink="http://www.w3.org/1999/xlink" xmlns:a="http://ns.adobe.com/AdobeSVGViewerExtensions/3.0/"
	 x="0px" y="0px" width="110px" height="106px" viewBox="-0.019 0 110 106"
	 overflow="visible" enable-background="new -0.019 0 110 106" xml:space="preserve">
<defs>
</defs>
<path id="bg_9_" fill="#4D4D4D" d="M107.746,15.015c0,0-3.789-2.643-5.807-4.055s-5.25-1.239-6.981,1.226
	S83.848,28.001,83.848,28.001V9.864c0-2.204-1.799-3.998-4.01-3.998h-3.227C75.196,2.416,72.002,0,68.292,0
	c-3.607,0-6.724,2.288-8.194,5.589C58.627,2.288,55.512,0,51.904,0c-3.602,0-6.712,2.279-8.186,5.569
	C42.243,2.279,39.132,0,35.531,0c-3.617,0-6.74,2.3-8.206,5.615C25.84,2.236,22.674,0,19.11,0c-3.654,0-6.893,2.345-8.327,5.866
	H7.017c-1.564,0-2.601,0.937-2.839,1.175l-3.003,2.994C0.417,10.791,0,11.794,0,12.862v89.14C0,104.208,1.799,106,4.01,106h72.822
	c1.07,0,2.077-0.416,2.835-1.171l3.006-2.996c0.236-0.234,1.176-1.302,1.176-2.828V58.003l25.247-35.947
	C110.68,19.799,110.008,16.595,107.746,15.015z"/>
<path fill="#FFFFFF" d="M106.715,16.735c0,0-4.231-2.949-5.927-4.139S97.31,12.32,96.6,13.332S88.875,24.33,88.875,24.33
	l-7.031,10.011V9.864c0-1.104-0.897-1.999-2.005-1.999H7.017c-0.58,0-1.103,0.271-1.419,0.587l-3.006,2.997
	c-0.376,0.375-0.587,0.883-0.587,1.413v89.14c0,1.105,0.897,1.999,2.005,1.999h72.822c0.531,0,1.041-0.211,1.417-0.585l3.006-2.996
	c0.464-0.482,0.589-1.061,0.589-1.415V57.372l17.886-25.466l7.724-10.997C108.406,19.553,108.075,17.684,106.715,16.735z
	 M77.811,57.88l0.017,39.126H9.016V11.862h68.812v33.414l21.229-30.225l5.927,4.138L77.811,57.88z"/>
<g>
	<path fill="#999999" d="M49.897,91.736c-0.21,0-0.42-0.066-0.597-0.198c-0.351-0.261-0.491-0.718-0.348-1.131l3.92-11.266
		c0.103-0.296,0.338-0.526,0.636-0.623c0.102-0.033,0.205-0.049,0.309-0.049c0.202,0,0.402,0.062,0.572,0.18l5.93,4.138
		c0.266,0.186,0.425,0.488,0.428,0.812c0.003,0.324-0.151,0.629-0.414,0.819l-9.85,7.128C50.308,91.673,50.103,91.736,49.897,91.736
		z"/>
	<path fill="#FFFFFF" d="M53.817,79.471l5.93,4.138l-9.85,7.128L53.817,79.471 M53.817,77.471c-0.207,0-0.415,0.032-0.616,0.097
		c-0.596,0.193-1.067,0.654-1.272,1.246l-3.92,11.266c-0.287,0.825-0.006,1.741,0.695,2.262c0.354,0.264,0.773,0.396,1.193,0.396
		c0.411,0,0.822-0.126,1.173-0.38l9.85-7.128c0.524-0.379,0.833-0.99,0.827-1.637s-0.324-1.252-0.855-1.623l-5.93-4.138
		C54.622,77.593,54.221,77.471,53.817,77.471L53.817,77.471z"/>
</g>
<g>
	<path fill="#CCCCCC" d="M100.845,26.091c-0.197,0-0.397-0.059-0.571-0.18l-5.927-4.138c-0.218-0.152-0.366-0.385-0.412-0.646
		c-0.047-0.262,0.014-0.531,0.166-0.749l4.144-5.901c0.194-0.277,0.505-0.425,0.819-0.425c0.197,0,0.397,0.059,0.571,0.18
		l5.927,4.138c0.218,0.152,0.366,0.385,0.412,0.646c0.047,0.262-0.014,0.531-0.166,0.749l-4.144,5.901
		C101.47,25.942,101.16,26.091,100.845,26.091z"/>
	<path fill="#FFFFFF" d="M99.063,15.052l5.927,4.138l-4.144,5.901l-5.927-4.138L99.063,15.052 M99.065,13.052
		c-0.63,0-1.25,0.296-1.639,0.851l-4.144,5.901c-0.306,0.435-0.425,0.974-0.333,1.497c0.093,0.523,0.389,0.988,0.825,1.292
		l5.927,4.138c0.349,0.244,0.747,0.36,1.143,0.36c0.63,0,1.25-0.296,1.639-0.851l4.144-5.901c0.306-0.435,0.425-0.974,0.333-1.497
		c-0.093-0.523-0.389-0.988-0.825-1.292l-5.927-4.138C99.859,13.168,99.46,13.052,99.065,13.052L99.065,13.052z"/>
</g>
<g>
	<path fill="#999999" d="M98.167,29.902c-0.197,0-0.397-0.058-0.571-0.18l-5.928-4.138c-0.218-0.152-0.366-0.385-0.412-0.646
		c-0.047-0.262,0.014-0.531,0.166-0.749l2.68-3.812c0.195-0.277,0.505-0.425,0.819-0.425c0.197,0,0.396,0.058,0.571,0.18
		l5.927,4.134c0.218,0.152,0.366,0.385,0.412,0.646c0.047,0.262-0.014,0.531-0.166,0.749l-2.679,3.815
		C98.792,29.754,98.482,29.902,98.167,29.902z"/>
	<path fill="#FFFFFF" d="M94.919,20.953l5.927,4.134l-2.679,3.815l-5.928-4.138L94.919,20.953 M94.921,18.953
		c-0.63,0-1.249,0.296-1.638,0.85l-2.68,3.812c-0.306,0.435-0.426,0.974-0.334,1.498c0.092,0.523,0.389,0.989,0.825,1.293
		l5.928,4.138c0.349,0.243,0.748,0.36,1.143,0.36c0.63,0,1.25-0.296,1.639-0.851l2.679-3.815c0.306-0.435,0.425-0.974,0.333-1.497
		c-0.093-0.523-0.39-0.989-0.825-1.292l-5.927-4.134C95.715,19.069,95.316,18.953,94.921,18.953L94.921,18.953z"/>
</g>
<g>
	<path fill="#FFFFFF" d="M99.063,15.052l5.927,4.138L59.747,83.608l-9.85,7.128l3.92-11.266L99.063,15.052 M99.066,12.051
		c-0.944,0-1.874,0.445-2.458,1.276L51.362,77.747c-0.159,0.227-0.287,0.476-0.378,0.738l-3.92,11.266
		c-0.431,1.237-0.009,2.611,1.042,3.393c0.531,0.395,1.161,0.593,1.791,0.593c0.617,0,1.233-0.189,1.759-0.57l9.85-7.128
		c0.27-0.195,0.505-0.434,0.696-0.706l45.243-64.418c0.458-0.652,0.638-1.46,0.499-2.245c-0.138-0.785-0.583-1.482-1.236-1.939
		l-5.927-4.138C100.257,12.227,99.659,12.051,99.066,12.051L99.066,12.051z"/>
</g>
<line fill="none" stroke="#FFFFFF" stroke-width="2" stroke-linecap="round" stroke-linejoin="round" x1="13.837" y1="92.062" x2="41.884" y2="92.062"/>
<line fill="none" stroke="#FFFFFF" stroke-width="2" stroke-linecap="round" x1="64.469" y1="81.711" x2="71.149" y2="81.711"/>
<line fill="none" stroke="#FFFFFF" stroke-width="2" stroke-linecap="round" x1="13.837" y1="81.711" x2="50.687" y2="81.711"/>
<line fill="none" stroke="#FFFFFF" stroke-width="2" stroke-linecap="round" x1="13.837" y1="61.701" x2="64.219" y2="61.701"/>
<line fill="none" stroke="#FFFFFF" stroke-width="2" stroke-linecap="round" x1="13.837" y1="41.689" x2="71.149" y2="41.689"/>
<line fill="none" stroke="#FFFFFF" stroke-width="2" stroke-linecap="round" x1="13.837" y1="51.696" x2="71.149" y2="51.696"/>
<line fill="none" stroke="#FFFFFF" stroke-width="2" stroke-linecap="round" x1="13.837" y1="71.708" x2="57.203" y2="71.708"/>
<line fill="none" stroke="#FFFFFF" stroke-width="2" stroke-linecap="round" x1="14.179" y1="24.162" x2="43.057" y2="24.162"/>
<line fill="none" stroke="#FFFFFF" stroke-width="2" stroke-linecap="round" x1="14.179" y1="29.176" x2="43.057" y2="29.176"/>
<line fill="none" stroke="#FFFFFF" stroke-width="2" stroke-linecap="round" x1="14.179" y1="34.192" x2="43.057" y2="34.192"/>
<path fill="#FFFFFF" d="M42.626,9.819c-0.012-4.314-3.188-7.821-7.096-7.821c-3.912,0-7.096,3.519-7.096,7.844
	c0.992,0,1.713,0,3.007,0c0-2.672,1.835-4.846,4.089-4.846c2.253,0,4.084,2.167,4.089,4.834c-0.003,1.565-0.646,2.945-1.623,3.829
	c-0.711-0.805-1.741-1.323-2.903-1.323c-2.146,0-3.883,1.734-3.883,3.875c0,2.137,1.737,3.871,3.883,3.871
	c1.978,0,3.589-1.477,3.834-3.378c2.197-1.329,3.691-3.905,3.699-6.862h0.001c0-0.004-0.001-0.008-0.001-0.011
	C42.626,9.827,42.627,9.823,42.626,9.819L42.626,9.819z"/>
<path fill="#FFFFFF" d="M59,9.838c-0.002-4.323-3.185-7.84-7.097-7.84c-3.913,0-7.097,3.519-7.097,7.844c0.992,0,1.713,0,3.008,0
	c0-2.672,1.834-4.846,4.089-4.846c2.254,0,4.088,2.173,4.089,4.844c-0.001,1.633-0.69,3.074-1.739,3.951
	c-0.711-0.88-1.787-1.455-3.011-1.455c-2.146,0-3.885,1.734-3.885,3.875c0,2.137,1.739,3.871,3.885,3.871
	c1.926,0,3.509-1.399,3.817-3.229c2.33-1.286,3.938-3.942,3.94-7.011l0,0c0,0,0-0.001,0-0.001C59,9.84,59,9.839,59,9.838L59,9.838z"
	/>
<path fill="#FFFFFF" d="M19.11,1.999c-3.913,0-7.096,3.519-7.096,7.844c0.992,0,1.713,0,3.007,0c0-2.672,1.834-4.846,4.089-4.846
	c2.255,0,4.09,2.174,4.09,4.846c0,1.557-0.634,2.93-1.6,3.817c-0.711-0.805-1.741-1.323-2.903-1.323
	c-2.145,0-3.881,1.734-3.881,3.875c0,2.137,1.737,3.871,3.881,3.871c1.976,0,3.584-1.473,3.833-3.371
	c2.189-1.337,3.676-3.914,3.676-6.869C26.207,5.517,23.023,1.999,19.11,1.999z"/>
<path fill="#FFFFFF" d="M68.292,1.999c-3.912,0-7.096,3.519-7.096,7.844c0.992,0,1.713,0,3.007,0c0-2.672,1.835-4.846,4.089-4.846
	c2.255,0,4.09,2.177,4.09,4.849c0,1.554-0.632,2.924-1.595,3.812c-0.712-0.804-1.741-1.321-2.901-1.321
	c-2.145,0-3.885,1.734-3.885,3.875c0,2.137,1.74,3.871,3.885,3.871c1.975,0,3.587-1.474,3.834-3.373
	c2.186-1.339,3.669-3.912,3.669-6.863C75.389,5.521,72.206,1.999,68.292,1.999z"/>
</svg>
