<?xml version="1.0" encoding="utf-8"?>
<!-- Generator: Adobe Illustrator 15.0.2, SVG Export Plug-In  -->
<!DOCTYPE svg PUBLIC "-//W3C//DTD SVG 1.1//EN" "http://www.w3.org/Graphics/SVG/1.1/DTD/svg11.dtd" [
	<!ENTITY ns_flows "http://ns.adobe.com/Flows/1.0/">
]>
<svg version="1.1"
	 xmlns="http://www.w3.org/2000/svg" xmlns:xlink="http://www.w3.org/1999/xlink" xmlns:a="http://ns.adobe.com/AdobeSVGViewerExtensions/3.0/"
	 x="0px" y="0px" width="128px" height="128px" viewBox="-9 -11 128 128"
	 overflow="visible" enable-background="new -9 -11 128 128" xml:space="preserve">
<defs>
</defs>
<path id="bg_1_" fill="#FFFFFF" d="M107.865,15.098l-5.926-4.138c-0.847-0.592-1.841-0.904-2.876-0.904
	c-0.288,0-0.58,0.025-0.867,0.075c-1.321,0.232-2.47,0.962-3.238,2.055l-4.144,5.901c-0.006,0.007-0.013,0.018-0.021,0.03
	l-3.561,5.065l-3.384,4.819V9.864c0-2.204-1.799-3.998-4.01-3.998h-3.227C75.196,2.416,72.002,0,68.292,0
	c-3.607,0-6.724,2.288-8.194,5.589C58.627,2.288,55.512,0,51.904,0c-3.602,0-6.712,2.279-8.186,5.569
	C42.243,2.279,39.132,0,35.531,0c-3.617,0-6.74,2.3-8.206,5.615C25.84,2.236,22.674,0,19.11,0c-3.654,0-6.893,2.345-8.327,5.866
	H7.017c-0.208,0-0.42,0.018-0.647,0.056C6.311,5.93,6.25,5.94,6.197,5.952C5.898,6.01,5.576,6.123,5.243,6.288
	C5.181,6.317,5.101,6.361,5.02,6.408C4.693,6.595,4.416,6.803,4.178,7.042l-3.003,2.994C0.417,10.791,0,11.794,0,12.862v89.14
	C0,104.208,1.799,106,4.01,106h72.822c1.07,0,2.077-0.416,2.835-1.171l3.006-2.996c0.236-0.234,0.445-0.512,0.636-0.842
	c0.045-0.078,0.08-0.143,0.113-0.211c0.171-0.343,0.283-0.663,0.349-0.991c0.008-0.039,0.014-0.078,0.02-0.119
	c0.039-0.227,0.059-0.445,0.059-0.665V58.003l17.522-24.948l3.504-4.991c0.028-0.039,0.058-0.078,0.085-0.119l4.136-5.889
	C110.68,19.799,110.127,16.678,107.865,15.098z"/>
<path id="pad_8_" fill="#4D4D4D" d="M106.715,16.735l-5.927-4.139c-0.509-0.355-1.112-0.542-1.726-0.542
	c-0.174,0-0.349,0.015-0.521,0.045c-0.785,0.138-1.484,0.582-1.941,1.233l-4.145,5.901c-0.006,0.008-0.012,0.017-0.017,0.025
	l-3.564,5.072l-7.031,10.011V9.864c0-1.104-0.897-1.999-2.005-1.999h-53.86h-3.135h-7.465h-1.639h-1.497H7.017
	c-0.125,0-0.245,0.015-0.363,0.037C6.643,7.904,6.632,7.903,6.621,7.905C6.448,7.939,6.288,8.002,6.135,8.077
	C6.096,8.096,6.061,8.116,6.023,8.138C5.869,8.226,5.723,8.327,5.598,8.452l-3.006,2.997c-0.376,0.375-0.587,0.883-0.587,1.413
	v89.14c0,1.105,0.897,1.999,2.005,1.999h72.822c0.531,0,1.041-0.211,1.417-0.585l3.006-2.996c0.126-0.125,0.228-0.271,0.316-0.426
	c0.021-0.037,0.04-0.07,0.059-0.107c0.076-0.154,0.14-0.314,0.174-0.488c0.002-0.008,0.001-0.014,0.003-0.021
	c0.022-0.121,0.037-0.244,0.037-0.372V57.372l-4.026,0.508l0.017,39.126H9.021V11.862h68.812v33.414l13.504-19.228l3.581-5.095
	l0.001-0.001l4.144-5.901l5.927,4.138l-4.144,5.901l-0.001-0.002l-3.58,5.099l0,0L77.817,57.88l4.026-0.508l17.886-25.466
	l3.521-5.014c0.021-0.027,0.041-0.055,0.061-0.082l4.143-5.901C108.406,19.553,108.075,17.684,106.715,16.735z"/>
<g>
	<path fill="#B3B3B3" d="M49.897,91.736c-0.21,0-0.42-0.066-0.597-0.197c-0.351-0.261-0.491-0.719-0.348-1.132l3.92-11.266
		c0.103-0.295,0.338-0.525,0.636-0.622c0.102-0.033,0.205-0.049,0.309-0.049c0.202,0,0.402,0.062,0.572,0.18l5.93,4.138
		c0.266,0.186,0.425,0.488,0.428,0.812c0.003,0.324-0.151,0.629-0.414,0.819l-9.85,7.128C50.308,91.673,50.103,91.736,49.897,91.736
		z"/>
	<path fill="#4D4D4D" d="M53.817,79.471l5.93,4.138l-9.85,7.128L53.817,79.471 M53.817,77.471c-0.207,0-0.415,0.032-0.616,0.098
		c-0.596,0.192-1.067,0.653-1.272,1.245l-3.92,11.266c-0.287,0.825-0.006,1.74,0.695,2.262c0.354,0.264,0.773,0.396,1.193,0.396
		c0.411,0,0.822-0.126,1.173-0.38l9.85-7.128c0.524-0.38,0.833-0.989,0.827-1.638c-0.006-0.647-0.324-1.252-0.855-1.623l-5.93-4.138
		C54.622,77.594,54.221,77.471,53.817,77.471L53.817,77.471z"/>
</g>
<g>
	<path fill="#808080" d="M100.845,26.091c-0.197,0-0.397-0.059-0.571-0.18l-5.927-4.139c-0.218-0.152-0.366-0.385-0.412-0.646
		c-0.047-0.262,0.014-0.531,0.166-0.749l4.144-5.901c0.194-0.277,0.505-0.425,0.819-0.425c0.197,0,0.397,0.059,0.571,0.18
		l5.927,4.138c0.218,0.152,0.366,0.385,0.412,0.646c0.047,0.262-0.014,0.531-0.166,0.749l-4.144,5.9
		C101.47,25.942,101.16,26.091,100.845,26.091z"/>
	<path fill="#4D4D4D" d="M99.063,15.052l5.927,4.138l-4.144,5.901l-5.927-4.138L99.063,15.052 M99.065,13.052
		c-0.63,0-1.25,0.296-1.639,0.851l-4.144,5.901c-0.306,0.435-0.425,0.974-0.333,1.497c0.093,0.523,0.389,0.988,0.825,1.293
		l5.927,4.138c0.349,0.243,0.747,0.36,1.143,0.36c0.63,0,1.25-0.297,1.639-0.851l4.144-5.901c0.306-0.435,0.425-0.974,0.333-1.497
		c-0.093-0.523-0.389-0.988-0.825-1.292l-5.927-4.138C99.859,13.168,99.46,13.052,99.065,13.052L99.065,13.052z"/>
</g>
<g>
	<path fill="#B3B3B3" d="M98.167,29.902c-0.197,0-0.397-0.059-0.571-0.18l-5.928-4.138c-0.218-0.152-0.366-0.385-0.412-0.646
		c-0.047-0.262,0.014-0.531,0.166-0.749l2.68-3.812c0.195-0.277,0.505-0.425,0.819-0.425c0.197,0,0.396,0.058,0.571,0.18
		l5.927,4.134c0.218,0.152,0.366,0.385,0.412,0.646c0.047,0.262-0.014,0.531-0.166,0.748l-2.679,3.815
		C98.792,29.754,98.482,29.902,98.167,29.902z"/>
	<path fill="#4D4D4D" d="M94.919,20.953l5.927,4.134l-2.679,3.815l-5.928-4.138L94.919,20.953 M94.921,18.953
		c-0.63,0-1.249,0.296-1.638,0.85l-2.68,3.812c-0.306,0.436-0.426,0.974-0.334,1.497s0.389,0.989,0.825,1.293l5.928,4.138
		c0.349,0.243,0.748,0.36,1.143,0.36c0.63,0,1.25-0.297,1.639-0.851l2.679-3.815c0.306-0.436,0.425-0.974,0.333-1.497
		c-0.093-0.523-0.39-0.988-0.825-1.293l-5.927-4.134C95.715,19.069,95.316,18.953,94.921,18.953L94.921,18.953z"/>
</g>
<g>
	<path fill="#4D4D4D" d="M91.337,26.049l5.928,4.139L60.403,82.674l-5.93-4.138L91.337,26.049 M91.339,24.049
		c-0.63,0-1.249,0.296-1.639,0.851L52.836,77.387c-0.306,0.435-0.425,0.974-0.333,1.497c0.093,0.523,0.39,0.988,0.825,1.293
		l5.93,4.138c0.349,0.243,0.748,0.359,1.143,0.359c0.63,0,1.249-0.296,1.639-0.851l36.862-52.486
		c0.306-0.435,0.425-0.974,0.333-1.497c-0.093-0.522-0.389-0.988-0.825-1.292l-5.928-4.139
		C92.133,24.166,91.735,24.049,91.339,24.049L91.339,24.049z"/>
</g>
<g>
	<path fill="#4D4D4D" d="M99.063,15.052l5.927,4.138L59.747,83.608l-9.85,7.128l3.92-11.266L99.063,15.052 M99.066,12.051
		c-0.944,0-1.874,0.445-2.458,1.276L51.362,77.746c-0.159,0.228-0.287,0.477-0.378,0.738l-3.92,11.266
		c-0.431,1.237-0.009,2.611,1.042,3.394c0.531,0.395,1.161,0.593,1.791,0.593c0.617,0,1.233-0.189,1.759-0.569l9.85-7.128
		c0.27-0.195,0.505-0.434,0.696-0.706l45.243-64.419c0.458-0.652,0.638-1.46,0.499-2.245c-0.138-0.785-0.583-1.482-1.236-1.939
		l-5.927-4.138C100.257,12.227,99.659,12.051,99.066,12.051L99.066,12.051z"/>
</g>
<line fill="none" stroke="#4D4D4D" stroke-width="2" stroke-linecap="round" stroke-linejoin="round" x1="13.837" y1="92.062" x2="41.884" y2="92.062"/>
<line fill="none" stroke="#4D4D4D" stroke-width="2" stroke-linecap="round" x1="64.469" y1="81.711" x2="71.149" y2="81.711"/>
<line fill="none" stroke="#4D4D4D" stroke-width="2" stroke-linecap="round" x1="13.837" y1="81.711" x2="50.687" y2="81.711"/>
<line fill="none" stroke="#4D4D4D" stroke-width="2" stroke-linecap="round" x1="13.837" y1="61.701" x2="64.219" y2="61.701"/>
<line fill="none" stroke="#4D4D4D" stroke-width="2" stroke-linecap="round" x1="13.837" y1="41.689" x2="71.149" y2="41.689"/>
<line fill="none" stroke="#4D4D4D" stroke-width="2" stroke-linecap="round" x1="13.837" y1="51.696" x2="71.149" y2="51.696"/>
<line fill="none" stroke="#4D4D4D" stroke-width="2" stroke-linecap="round" x1="13.837" y1="71.708" x2="57.203" y2="71.708"/>
<line fill="none" stroke="#4D4D4D" stroke-width="2" stroke-linecap="round" x1="14.179" y1="24.162" x2="43.057" y2="24.162"/>
<line fill="none" stroke="#4D4D4D" stroke-width="2" stroke-linecap="round" x1="14.179" y1="29.176" x2="43.057" y2="29.176"/>
<line fill="none" stroke="#4D4D4D" stroke-width="2" stroke-linecap="round" x1="14.179" y1="34.192" x2="43.057" y2="34.192"/>
<ellipse fill="#4D4D4D" cx="67.886" cy="16.211" rx="3.885" ry="3.871"/>
<ellipse fill="#4D4D4D" cx="51.241" cy="16.211" rx="3.883" ry="3.871"/>
<path fill="#4D4D4D" d="M31.21,16.211c0,2.137,1.737,3.871,3.883,3.871c2.147,0,3.884-1.734,3.884-3.871
	c0-2.141-1.736-3.875-3.884-3.875C32.948,12.336,31.21,14.07,31.21,16.211z"/>
<path fill="#4D4D4D" d="M14.816,16.211c0,2.137,1.737,3.871,3.881,3.871c2.148,0,3.883-1.734,3.883-3.871
	c0-2.141-1.735-3.875-3.883-3.875C16.553,12.336,14.816,14.07,14.816,16.211z"/>
<path fill="#4D4D4D" d="M19.11,17.686c-0.831,0-1.503-0.671-1.503-1.499s0.673-1.499,1.503-1.499c2.255,0,4.089-2.174,4.089-4.846
	c1.003,0,2.233,0,3.007,0C26.207,14.167,23.023,17.686,19.11,17.686z"/>
<path fill="#4D4D4D" d="M35.531,17.663c-0.83,0-1.503-0.671-1.503-1.499c0-0.828,0.673-1.499,1.503-1.499
	c2.256,0,4.09-2.174,4.09-4.846c1.003,0,2.233,0,3.007,0C42.627,14.145,39.445,17.663,35.531,17.663z"/>
<path fill="#4D4D4D" d="M51.904,17.682c-0.831,0-1.504-0.671-1.504-1.499s0.673-1.499,1.504-1.499c2.255,0,4.089-2.174,4.089-4.846
	c1.004,0,2.233,0,3.008,0C59,14.164,55.817,17.682,51.904,17.682z"/>
<path fill="#4D4D4D" d="M68.292,17.689c-0.83,0-1.503-0.671-1.503-1.499s0.673-1.499,1.503-1.499c2.255,0,4.09-2.174,4.09-4.846
	c1.003,0,2.233,0,3.007,0C75.389,14.171,72.206,17.689,68.292,17.689z"/>
<path fill="#4D4D4D" d="M39.621,9.842c0-2.672-1.834-4.846-4.09-4.846c-2.254,0-4.089,2.174-4.089,4.846c-1.294,0-2.015,0-3.007,0
	c0-4.325,3.184-7.844,7.096-7.844c3.914,0,7.097,3.519,7.097,7.844C41.684,9.842,40.54,9.842,39.621,9.842z"/>
<path fill="#4D4D4D" d="M23.2,9.842c0-2.672-1.834-4.846-4.09-4.846c-2.254,0-4.089,2.174-4.089,4.846c-1.294,0-2.015,0-3.007,0
	c0-4.325,3.183-7.844,7.096-7.844c3.914,0,7.097,3.519,7.097,7.844C25.263,9.842,24.118,9.842,23.2,9.842z"/>
<path fill="#4D4D4D" d="M55.993,9.842c0-2.672-1.834-4.846-4.089-4.846s-4.089,2.174-4.089,4.846c-1.295,0-2.016,0-3.008,0
	c0-4.325,3.184-7.844,7.097-7.844S59,5.517,59,9.842C58.056,9.842,56.912,9.842,55.993,9.842z"/>
<path fill="#4D4D4D" d="M72.382,9.842c0-2.672-1.835-4.846-4.09-4.846c-2.254,0-4.089,2.174-4.089,4.846c-1.294,0-2.015,0-3.007,0
	c0-4.325,3.184-7.844,7.096-7.844c3.913,0,7.097,3.519,7.097,7.844C74.446,9.842,73.301,9.842,72.382,9.842z"/>
</svg>
