<?xml version="1.0" encoding="utf-8"?>
<!-- Generator: Adobe Illustrator 15.0.2, SVG Export Plug-In  -->
<!DOCTYPE svg PUBLIC "-//W3C//DTD SVG 1.1//EN" "http://www.w3.org/Graphics/SVG/1.1/DTD/svg11.dtd" [
	<!ENTITY ns_flows "http://ns.adobe.com/Flows/1.0/">
]>
<svg version="1.1"
	 xmlns="http://www.w3.org/2000/svg" xmlns:xlink="http://www.w3.org/1999/xlink" xmlns:a="http://ns.adobe.com/AdobeSVGViewerExtensions/3.0/"
	 x="0px" y="0px" width="124px" height="102px" viewBox="0 0 124 102" overflow="visible" enable-background="new 0 0 124 102"
	 xml:space="preserve">
<defs>
</defs>
<path fill="#FFEE99" d="M92.361,0H5.102C4.123,0,3.203,0.482,2.644,1.292L0.54,4.326C0.188,4.833,0,5.432,0,6.056v92.921
	C0,100.644,1.346,102,2.999,102H117.99c0.677,0,1.339-0.233,1.867-0.657l3.009-2.406c0.722-0.579,1.134-1.44,1.134-2.368V30.537
	c0-13.479-5.055-17.821-10.406-22.417c-0.322-0.277-1.174-1.023-1.174-1.023C108.078,3.29,104.327,0,92.361,0L92.361,0z"/>
<polyline fill="#4D4D4D" stroke="#4D4D4D" stroke-width="4" stroke-linecap="round" stroke-linejoin="round" stroke-miterlimit="10" points="
	117.093,97.991 4.008,98.003 4.004,6.787 5.914,4.022 5.917,95.658 120.01,95.646 117.093,97.991 "/>
<line fill="none" stroke="#4D4D4D" stroke-width="2" stroke-miterlimit="10" x1="10.686" y1="9.64" x2="98.571" y2="9.64"/>
<line fill="none" stroke="#4D4D4D" stroke-width="2" stroke-miterlimit="10" x1="10.686" y1="27.587" x2="115.502" y2="27.587"/>
<line fill="none" stroke="#4D4D4D" stroke-miterlimit="10" x1="10.686" y1="80.518" x2="115.502" y2="80.518"/>
<path fill="#4D4D4D" d="M25.214,18.354c0,0.945-0.229,1.792-0.686,2.538c-0.456,0.748-1.034,1.321-1.731,1.722
	c-0.583,0.341-1.216,0.561-1.902,0.658c-0.685,0.098-1.414,0.146-2.188,0.146h-3.51V13.27h3.48c0.788,0,1.525,0.045,2.213,0.136
	c0.688,0.091,1.334,0.312,1.936,0.661c0.739,0.427,1.32,1.003,1.747,1.728S25.214,17.374,25.214,18.354z M22.322,18.334
	c0-0.667-0.127-1.239-0.38-1.714c-0.255-0.475-0.645-0.847-1.172-1.115c-0.382-0.19-0.782-0.295-1.201-0.313
	c-0.42-0.019-0.92-0.028-1.502-0.028h-0.054v6.353h0.054c0.632,0,1.165-0.011,1.6-0.031s0.848-0.142,1.239-0.365
	c0.462-0.263,0.813-0.627,1.055-1.09C22.201,19.568,22.322,19.002,22.322,18.334z"/>
<path fill="#4D4D4D" d="M31.39,22.607c-0.182,0.136-0.343,0.26-0.486,0.368s-0.335,0.219-0.576,0.327
	c-0.235,0.104-0.465,0.185-0.688,0.239c-0.224,0.054-0.537,0.081-0.938,0.081c-0.748,0-1.369-0.227-1.863-0.681
	c-0.495-0.455-0.741-1.026-0.741-1.718c0-0.567,0.124-1.026,0.376-1.377c0.251-0.351,0.612-0.627,1.084-0.832
	c0.478-0.209,1.048-0.354,1.71-0.437c0.662-0.082,1.376-0.146,2.139-0.19v-0.042c0-0.423-0.172-0.714-0.516-0.875
	s-0.86-0.242-1.548-0.242c-0.311,0-0.676,0.05-1.093,0.153c-0.416,0.102-0.823,0.233-1.22,0.392h-0.226v-1.847
	c0.261-0.068,0.683-0.149,1.266-0.242c0.582-0.094,1.169-0.14,1.763-0.14c1.455,0,2.517,0.219,3.182,0.658
	c0.664,0.438,0.998,1.107,0.998,2.007v5.208H31.39V22.607z M31.39,21.422v-1.595c-0.447,0.04-0.809,0.075-1.085,0.105
	s-0.547,0.088-0.813,0.174c-0.23,0.072-0.411,0.183-0.538,0.33c-0.128,0.148-0.192,0.344-0.192,0.59c0,0.358,0.106,0.606,0.319,0.74
	c0.214,0.134,0.529,0.201,0.946,0.201c0.231,0,0.467-0.049,0.707-0.144C30.976,21.729,31.193,21.594,31.39,21.422z"/>
<path fill="#4D4D4D" d="M38.672,14.674h-2.786v-1.861h2.786V14.674z M38.596,23.419h-2.635v-7.654h2.635V23.419z"/>
<path fill="#4D4D4D" d="M43.25,23.419h-2.635V12.813h2.635V23.419z"/>
<path fill="#4D4D4D" d="M53.161,15.765l-4.27,10.463h-2.833l1.281-2.993l-3.103-7.47h2.771l1.778,4.798l1.664-4.798H53.161z"/>
<path fill="#4D4D4D" d="M68.428,23.419h-2.712l-4.323-7.075v7.075h-2.575V13.27h3.457l3.577,5.814V13.27h2.576V23.419z"/>
<path fill="#4D4D4D" d="M74.882,23.623c-1.597,0-2.82-0.345-3.672-1.035c-0.851-0.691-1.276-1.676-1.276-2.952
	c0-1.249,0.396-2.247,1.189-2.992c0.794-0.745,1.902-1.118,3.329-1.118c1.296,0,2.269,0.316,2.922,0.948
	c0.652,0.631,0.979,1.536,0.979,2.712v0.859h-5.777c0.025,0.354,0.108,0.65,0.249,0.89c0.142,0.238,0.326,0.43,0.558,0.568
	c0.226,0.141,0.489,0.242,0.791,0.304c0.301,0.062,0.63,0.093,0.986,0.093c0.307,0,0.607-0.031,0.903-0.093s0.568-0.142,0.813-0.241
	c0.217-0.087,0.415-0.181,0.6-0.279c0.183-0.101,0.332-0.19,0.448-0.266h0.278v1.969c-0.217,0.077-0.413,0.149-0.592,0.215
	c-0.178,0.065-0.423,0.134-0.734,0.201c-0.286,0.068-0.58,0.121-0.885,0.159C75.688,23.604,75.318,23.623,74.882,23.623z
	 M75.755,18.607c-0.015-0.505-0.145-0.889-0.388-1.152c-0.244-0.263-0.616-0.395-1.119-0.395c-0.511,0-0.911,0.138-1.201,0.416
	c-0.288,0.276-0.448,0.654-0.479,1.131H75.755z"/>
<path fill="#4D4D4D" d="M92.309,15.765l-2.47,7.654h-2.802l-1.484-4.948l-1.49,4.948h-2.802l-2.448-7.654h2.772l1.295,5.064
	l1.604-5.064h2.326l1.514,5.064l1.272-5.064H92.309z"/>
<path fill="#4D4D4D" d="M96.007,23.63c-0.624,0-1.212-0.062-1.767-0.185c-0.555-0.122-1.013-0.265-1.374-0.429V21h0.218
	c0.126,0.086,0.269,0.182,0.43,0.286s0.384,0.213,0.67,0.327c0.246,0.104,0.523,0.193,0.832,0.27c0.31,0.074,0.645,0.11,1.006,0.11
	c0.371,0,0.699-0.051,0.983-0.155c0.283-0.104,0.425-0.271,0.425-0.497c0-0.178-0.065-0.312-0.195-0.403
	c-0.132-0.091-0.385-0.177-0.761-0.258c-0.201-0.046-0.455-0.095-0.761-0.146c-0.307-0.053-0.578-0.113-0.813-0.182
	c-0.663-0.186-1.162-0.462-1.495-0.828c-0.334-0.366-0.501-0.846-0.501-1.441c0-0.341,0.087-0.662,0.26-0.964
	s0.429-0.571,0.765-0.808c0.336-0.232,0.752-0.416,1.246-0.552c0.495-0.136,1.053-0.204,1.676-0.204c0.592,0,1.138,0.053,1.635,0.16
	c0.497,0.107,0.916,0.235,1.258,0.385v1.936H99.53c-0.09-0.063-0.232-0.148-0.429-0.255c-0.195-0.106-0.387-0.199-0.572-0.276
	c-0.222-0.091-0.468-0.166-0.741-0.226c-0.274-0.059-0.554-0.088-0.84-0.088c-0.382,0-0.705,0.059-0.969,0.177
	c-0.263,0.118-0.395,0.275-0.395,0.47c0,0.173,0.065,0.309,0.196,0.409c0.13,0.1,0.414,0.197,0.85,0.293
	c0.227,0.05,0.486,0.099,0.78,0.146c0.294,0.048,0.576,0.112,0.847,0.194c0.607,0.177,1.068,0.437,1.382,0.781
	c0.313,0.343,0.471,0.799,0.471,1.366c0,0.358-0.093,0.701-0.278,1.026c-0.186,0.324-0.449,0.599-0.79,0.821
	c-0.362,0.241-0.787,0.427-1.276,0.558C97.275,23.564,96.688,23.63,96.007,23.63z"/>
<line fill="none" stroke="#4D4D4D" stroke-miterlimit="10" x1="81.365" y1="50.485" x2="81.365" y2="78.521"/>
<line fill="none" stroke="#4D4D4D" stroke-miterlimit="10" x1="43.704" y1="50.485" x2="43.704" y2="78.521"/>
<rect x="41.688" y="82.676" fill="#4D4D4D" width="41.65" height="13.705"/>
<line fill="none" stroke="#999999" stroke-width="5" stroke-miterlimit="10" x1="10.686" y1="34.316" x2="114.93" y2="34.316"/>
<line fill="none" stroke="#999999" stroke-width="5" stroke-miterlimit="10" x1="10.686" y1="42.292" x2="114.93" y2="42.292"/>
<rect x="11.059" y="49.609" fill="#999999" width="28.329" height="28.911"/>
<rect x="11.059" y="82.676" fill="#999999" width="28.329" height="10.443"/>
<rect x="85.974" y="82.676" fill="#999999" width="28.329" height="10.443"/>
<rect x="48.516" y="49.609" fill="#999999" width="28.329" height="28.911"/>
<rect x="85.974" y="49.609" fill="#999999" width="28.329" height="28.911"/>
<path fill="#333333" stroke="#333333" stroke-width="2" stroke-linecap="round" stroke-linejoin="round" d="M95.307,5.851
	c2.178,9.863,0.214,9.94-0.983,22.054c11.809-0.98,16.264-2.546,23.686,0.971c-6.079-9.458-19.728-4.794-19.728-4.794
	S101.787,12.813,95.307,5.851z"/>
<path fill="none" stroke="#4D4D4D" stroke-width="2" stroke-linecap="round" stroke-linejoin="round" d="M90.803,3.022
	c8.065,2.813,9.451,7.294,8.186,19.822c14.594-1.441,18.385,3.805,22.013,8.987"/>
<path fill="none" stroke="#4D4D4D" stroke-width="2" stroke-linecap="round" stroke-linejoin="round" d="M99.896,3.958
	c2.701,1.996,4.81,7.944,4.168,13.669c9.127-0.319,13.657,3.825,16.156,5.821"/>
<path fill="none" stroke="#4D4D4D" stroke-width="2" stroke-linecap="round" stroke-linejoin="round" d="M106.148,5.954
	c1.729,4.19,2.022,6.005,2.084,8.211c2.934-0.046,7.744,1.523,9.897,3.132"/>
<path fill="none" stroke="#4D4D4D" stroke-width="4" stroke-linecap="round" stroke-linejoin="round" stroke-miterlimit="10" d="
	M4.287,97.538V6.371l1.627-2.349h86.447c10.473,0,13.396,2.563,17.441,6.111c0,0,0.87,0.762,1.202,1.047
	c5.031,4.321,9.005,7.734,9.005,19.356v65.109l-2.365,1.892H4.287z"/>
</svg>
