<?xml version="1.0" encoding="utf-8"?>
<!-- Generator: Adobe Illustrator 15.0.2, SVG Export Plug-In  -->
<!DOCTYPE svg PUBLIC "-//W3C//DTD SVG 1.1//EN" "http://www.w3.org/Graphics/SVG/1.1/DTD/svg11.dtd" [
	<!ENTITY ns_flows "http://ns.adobe.com/Flows/1.0/">
]>
<svg version="1.1"
	 xmlns="http://www.w3.org/2000/svg" xmlns:xlink="http://www.w3.org/1999/xlink" xmlns:a="http://ns.adobe.com/AdobeSVGViewerExtensions/3.0/"
	 x="0px" y="0px" width="128px" height="128px" viewBox="-1 -13.281 128 128"
	 overflow="visible" enable-background="new -1 -13.281 128 128" xml:space="preserve">
<defs>
</defs>
<path fill="#FFFFFF" d="M94.361,0H5.101C4.123,0,3.204,0.48,2.643,1.284L0.54,4.302C0.187,4.806,0,5.402,0,6.023v92.409
	c0,1.657,1.346,3.006,2.999,3.006H119.99c0.677,0,1.339-0.232,1.867-0.653l3.009-2.394c0.722-0.575,1.134-1.433,1.134-2.354V30.369
	c0-13.405-5.055-17.723-10.406-22.294c-0.322-0.275-1.174-1.017-1.174-1.017C110.078,3.271,106.327,0,94.361,0L94.361,0z"/>
<polyline fill="#4D4D4D" stroke="#4D4D4D" stroke-width="4" stroke-linecap="round" stroke-linejoin="round" stroke-miterlimit="10" points="
	119.093,97.451 4.008,97.463 4.004,6.749 5.914,4 5.917,95.131 122.01,95.119 119.093,97.451 "/>
<line fill="none" stroke="#4D4D4D" stroke-width="2" stroke-miterlimit="10" x1="11.686" y1="9.586" x2="99.571" y2="9.586"/>
<line fill="none" stroke="#4D4D4D" stroke-width="2" stroke-miterlimit="10" x1="11.686" y1="27.435" x2="116.502" y2="27.435"/>
<line fill="none" stroke="#4D4D4D" stroke-miterlimit="10" x1="11.686" y1="80.073" x2="116.502" y2="80.073"/>
<path fill="#4D4D4D" d="M26.214,18.253c0,0.94-0.228,1.782-0.685,2.524c-0.457,0.744-1.035,1.314-1.732,1.712
	c-0.583,0.339-1.216,0.558-1.902,0.655c-0.685,0.097-1.415,0.146-2.187,0.146h-3.51V13.197h3.48c0.788,0,1.526,0.045,2.213,0.136
	c0.688,0.091,1.334,0.31,1.936,0.657c0.738,0.425,1.32,0.998,1.747,1.719C26,16.429,26.214,17.278,26.214,18.253z M23.322,18.233
	c0-0.664-0.126-1.232-0.38-1.705c-0.254-0.472-0.644-0.842-1.171-1.108c-0.382-0.189-0.782-0.293-1.201-0.312
	c-0.42-0.018-0.921-0.027-1.502-0.027h-0.054v6.317h0.054c0.632,0,1.165-0.01,1.6-0.03s0.848-0.142,1.239-0.363
	c0.462-0.262,0.813-0.624,1.054-1.084C23.201,19.46,23.322,18.897,23.322,18.233z"/>
<path fill="#4D4D4D" d="M32.39,22.482c-0.182,0.136-0.343,0.259-0.486,0.366c-0.144,0.108-0.335,0.218-0.576,0.325
	c-0.236,0.104-0.466,0.184-0.689,0.238c-0.224,0.054-0.537,0.081-0.938,0.081c-0.749,0-1.37-0.226-1.864-0.678
	c-0.495-0.452-0.742-1.021-0.742-1.708c0-0.564,0.125-1.021,0.376-1.369c0.251-0.349,0.613-0.624,1.084-0.827
	c0.478-0.208,1.047-0.353,1.71-0.434c0.663-0.081,1.376-0.145,2.139-0.189v-0.041c0-0.42-0.172-0.71-0.516-0.871
	c-0.344-0.161-0.86-0.241-1.548-0.241c-0.311,0-0.675,0.05-1.092,0.152c-0.416,0.102-0.823,0.231-1.22,0.39h-0.226V15.84
	c0.261-0.067,0.683-0.148,1.266-0.24c0.583-0.093,1.169-0.139,1.762-0.139c1.456,0,2.517,0.218,3.182,0.654
	c0.664,0.436,0.998,1.101,0.998,1.996v5.179H32.39V22.482z M32.39,21.304v-1.586c-0.447,0.04-0.809,0.075-1.084,0.104
	c-0.277,0.03-0.547,0.088-0.813,0.173c-0.231,0.072-0.411,0.182-0.539,0.329c-0.127,0.147-0.192,0.342-0.192,0.586
	c0,0.356,0.106,0.604,0.32,0.736s0.529,0.2,0.946,0.2c0.231,0,0.467-0.049,0.707-0.143C31.976,21.608,32.193,21.475,32.39,21.304z"
	/>
<path fill="#4D4D4D" d="M39.672,14.593h-2.786v-1.851h2.786V14.593z M39.596,23.29h-2.635v-7.612h2.635V23.29z"/>
<path fill="#4D4D4D" d="M44.25,23.29h-2.635V12.743h2.635V23.29z"/>
<path fill="#4D4D4D" d="M54.161,15.678l-4.27,10.405h-2.833l1.281-2.977l-3.103-7.429h2.771l1.778,4.771l1.664-4.771H54.161z"/>
<path fill="#4D4D4D" d="M69.428,23.29h-2.712l-4.323-7.036v7.036h-2.575V13.197h3.457l3.577,5.782v-5.782h2.576V23.29z"/>
<path fill="#4D4D4D" d="M75.882,23.493c-1.597,0-2.82-0.343-3.672-1.03c-0.851-0.688-1.276-1.666-1.276-2.936
	c0-1.242,0.396-2.234,1.189-2.975c0.794-0.741,1.902-1.112,3.329-1.112c1.296,0,2.269,0.314,2.922,0.942
	c0.652,0.628,0.979,1.527,0.979,2.697v0.854h-5.777c0.025,0.353,0.108,0.646,0.249,0.885c0.142,0.236,0.326,0.427,0.558,0.565
	c0.226,0.14,0.489,0.24,0.791,0.302c0.301,0.062,0.63,0.092,0.986,0.092c0.307,0,0.607-0.03,0.903-0.092s0.568-0.141,0.813-0.24
	c0.217-0.086,0.415-0.18,0.6-0.277c0.183-0.101,0.332-0.189,0.448-0.265h0.278v1.958c-0.217,0.077-0.413,0.148-0.592,0.214
	c-0.178,0.065-0.423,0.133-0.734,0.2c-0.286,0.067-0.58,0.12-0.885,0.158C76.688,23.474,76.318,23.493,75.882,23.493z
	 M76.755,18.504c-0.015-0.502-0.145-0.884-0.388-1.146c-0.244-0.262-0.616-0.393-1.119-0.393c-0.511,0-0.911,0.138-1.201,0.414
	c-0.288,0.275-0.448,0.65-0.479,1.125H76.755z"/>
<path fill="#4D4D4D" d="M93.309,15.678l-2.47,7.612h-2.802l-1.484-4.921l-1.49,4.921h-2.802l-2.448-7.612h2.772l1.295,5.036
	l1.604-5.036h2.326l1.514,5.036l1.272-5.036H93.309z"/>
<path fill="#4D4D4D" d="M97.007,23.5c-0.624,0-1.212-0.062-1.767-0.184s-1.013-0.264-1.374-0.427v-2.006h0.218
	c0.126,0.086,0.269,0.181,0.43,0.285c0.161,0.104,0.384,0.212,0.67,0.325c0.246,0.104,0.523,0.192,0.832,0.268
	c0.31,0.074,0.645,0.11,1.006,0.11c0.371,0,0.699-0.051,0.983-0.154c0.283-0.104,0.426-0.27,0.426-0.495
	c0-0.177-0.066-0.311-0.196-0.4c-0.132-0.091-0.385-0.176-0.761-0.257c-0.201-0.046-0.455-0.094-0.761-0.146
	c-0.307-0.053-0.578-0.112-0.813-0.181c-0.663-0.185-1.162-0.459-1.495-0.823c-0.334-0.364-0.501-0.842-0.501-1.434
	c0-0.339,0.087-0.659,0.26-0.959c0.173-0.301,0.429-0.568,0.765-0.803c0.336-0.231,0.752-0.414,1.246-0.549
	c0.495-0.135,1.053-0.203,1.676-0.203c0.592,0,1.138,0.053,1.635,0.159s0.916,0.234,1.258,0.383v1.925h-0.212
	c-0.09-0.063-0.232-0.147-0.429-0.254c-0.195-0.106-0.387-0.198-0.572-0.274c-0.222-0.091-0.468-0.165-0.741-0.224
	c-0.274-0.058-0.554-0.088-0.84-0.088c-0.382,0-0.705,0.059-0.969,0.176c-0.263,0.118-0.395,0.274-0.395,0.468
	c0,0.172,0.065,0.307,0.196,0.407c0.13,0.099,0.414,0.196,0.85,0.292c0.227,0.05,0.486,0.098,0.78,0.146
	c0.294,0.048,0.576,0.112,0.848,0.193c0.606,0.176,1.067,0.435,1.381,0.776c0.313,0.341,0.471,0.794,0.471,1.358
	c0,0.356-0.093,0.697-0.278,1.021s-0.449,0.596-0.79,0.817c-0.362,0.239-0.787,0.424-1.276,0.555
	C98.275,23.435,97.688,23.5,97.007,23.5z"/>
<line fill="none" stroke="#4D4D4D" stroke-miterlimit="10" x1="83.365" y1="50.207" x2="83.365" y2="78.088"/>
<line fill="none" stroke="#4D4D4D" stroke-miterlimit="10" x1="43.704" y1="50.207" x2="43.704" y2="78.088"/>
<rect x="42.688" y="82.22" fill="#4D4D4D" width="41.65" height="13.63"/>
<line fill="none" stroke="#999999" stroke-width="5" stroke-miterlimit="10" x1="11.686" y1="34.127" x2="115.93" y2="34.127"/>
<line fill="none" stroke="#999999" stroke-width="5" stroke-miterlimit="10" x1="11.686" y1="42.059" x2="115.93" y2="42.059"/>
<rect x="12.059" y="49.336" fill="#999999" width="28.329" height="28.752"/>
<rect x="12.059" y="82.22" fill="#999999" width="28.329" height="10.386"/>
<rect x="86.974" y="82.22" fill="#999999" width="28.329" height="10.386"/>
<rect x="49.516" y="49.336" fill="#999999" width="28.329" height="28.752"/>
<rect x="86.974" y="49.336" fill="#999999" width="28.329" height="28.752"/>
<path fill="#333333" stroke="#333333" stroke-width="2" stroke-linecap="round" stroke-linejoin="round" d="M97.307,5.818
	c2.178,9.809,0.214,9.885-0.983,21.932c11.809-0.975,16.264-2.531,23.686,0.966c-6.079-9.405-19.728-4.768-19.728-4.768
	S103.787,12.743,97.307,5.818z"/>
<path fill="none" stroke="#4D4D4D" stroke-width="2" stroke-linecap="round" stroke-linejoin="round" d="M92.803,3.006
	c8.065,2.798,9.451,7.253,8.186,19.713c14.594-1.434,18.385,3.784,22.013,8.938"/>
<path fill="none" stroke="#4D4D4D" stroke-width="2" stroke-linecap="round" stroke-linejoin="round" d="M101.896,3.936
	c2.701,1.985,4.81,7.901,4.168,13.594c9.127-0.317,13.657,3.804,16.156,5.789"/>
<path fill="none" stroke="#4D4D4D" stroke-width="2" stroke-linecap="round" stroke-linejoin="round" d="M108.148,5.921
	c1.729,4.167,2.022,5.972,2.084,8.166c2.934-0.046,7.744,1.515,9.897,3.115"/>
<path fill="none" stroke="#4D4D4D" stroke-width="4" stroke-linecap="round" stroke-linejoin="round" stroke-miterlimit="10" d="
	M4.287,97V6.335L5.914,4h88.448c10.473,0,13.396,2.549,17.441,6.078c0,0,0.87,0.757,1.202,1.042
	c5.031,4.297,9.005,7.691,9.005,19.25v64.75L119.645,97H4.287z"/>
</svg>
