<?xml version="1.0" encoding="utf-8"?>
<!-- Generator: Adobe Illustrator 15.0.2, SVG Export Plug-In  -->
<!DOCTYPE svg PUBLIC "-//W3C//DTD SVG 1.1//EN" "http://www.w3.org/Graphics/SVG/1.1/DTD/svg11.dtd" [
	<!ENTITY ns_flows "http://ns.adobe.com/Flows/1.0/">
]>
<svg version="1.1"
	 xmlns="http://www.w3.org/2000/svg" xmlns:xlink="http://www.w3.org/1999/xlink" xmlns:a="http://ns.adobe.com/AdobeSVGViewerExtensions/3.0/"
	 x="0px" y="0px" width="126px" height="90px" viewBox="0 0 126 90" overflow="visible" enable-background="new 0 0 126 90"
	 xml:space="preserve">
<defs>
</defs>
<path fill="#FFFFFF" d="M90.346,0c0,0-0.002,0-0.003,0h-0.149c-7.945,0-15.869,1.035-23.553,3.077
	c-1.47,0.402-2.652,0.874-3.619,1.452c-0.968-0.578-2.15-1.051-3.615-1.452C51.717,1.033,43.798,0,35.854,0h-0.15
	c-7.922,0.014-16.086,1.077-23.612,3.077c-5.17,1.415-7.314,3.945-7.59,9.155c-3.174,1.732-4.497,4.525-4.501,9.3v60.132
	c0.001,1.123,0.003,2.999,0.679,4.684C1.624,88.703,3.601,90,6.248,90c1.063,0,2.223-0.195,4.004-0.679
	c0.019-0.006,0.039-0.01,0.057-0.016c8.254-2.495,15.35-3.736,23.006-4.024c0.401-0.016,0.804-0.021,1.208-0.021
	c5.87,0,12.113,1.496,18.149,2.944c1.694,0.406,3.294,0.79,4.891,1.143C59.545,89.769,61.42,89.99,63,89.99
	c0.853,0,3.717-0.197,5.48-0.669c1.776-0.394,3.625-0.849,5.414-1.287c5.934-1.457,12.068-2.964,17.831-2.964
	c0.425,0,0.849,0.008,1.271,0.025c7.54,0.311,14.558,1.559,22.752,4.04c0.02,0.006,0.039,0.012,0.059,0.018
	c1.718,0.463,2.897,0.661,3.943,0.661c2.647,0,4.626-1.298,5.57-3.652c0.677-1.685,0.679-3.561,0.68-4.682V21.347
	c-0.004-3.572-0.585-7.137-4.514-9.302c-0.314-5.086-2.464-7.57-7.578-8.969C106.271,1.047,98.349,0.014,90.346,0L90.346,0z"/>
<path fill="#4D4D4D" d="M119.525,13.329c-0.025-5.085-1.47-7.037-6.145-8.316c-7.458-1.982-15.319-2.993-23.038-3.006h-0.149
	c-7.771,0-15.518,1.011-23.039,3.01c-1.847,0.505-3.183,1.12-4.133,1.99c-0.95-0.871-2.289-1.487-4.143-1.994
	C51.37,3.018,43.624,2.007,35.854,2.007h-0.15c-7.718,0.013-15.625,1.024-23.099,3.01c-4.695,1.285-6.127,3.252-6.132,8.42v0.078
	c-3.361,1.386-4.466,3.538-4.471,8.019v60.13c0.002,2.055,0.007,6.329,4.248,6.329c0.863,0,1.886-0.179,3.481-0.61
	c7.985-2.413,15.231-3.798,23.51-4.106c8.133-0.305,16.981,2.393,24.754,4.11c1.844,0.393,3.585,0.597,5.005,0.597
	c0.862,0,3.557-0.218,5.005-0.612c7.981-1.771,16.845-4.617,25.072-4.281c8.175,0.339,15.313,1.721,23.249,4.124
	c1.537,0.415,2.562,0.593,3.424,0.593c4.241,0,4.245-4.274,4.248-6.33V21.347C123.993,16.87,122.891,14.717,119.525,13.329z
	 M65.025,13.439c0.003-3.404,0.241-3.744,3.168-4.545c7.174-1.906,14.575-2.872,22-2.872h0.143
	c7.376,0.012,14.893,0.979,22.005,2.868c2.94,0.805,3.18,1.146,3.183,4.547v64.411c-0.001,1.288-0.663,1.325-1.987,0.83
	c-0.962-0.418-2.681-0.873-5.801-1.518c-3.229-0.665-8.47-1.459-14.32-1.459c-4.776,0-9.359,0.586-13.673,1.559
	c-5.352,1.208-12.312,3.292-12.688,3.413c-1.599,0.522-2.028-0.533-2.029-1.819V13.439z M10.477,13.439
	c0.003-3.404,0.24-3.744,3.167-4.545c7.126-1.893,14.69-2.859,22.065-2.872h0.144c7.424,0,14.827,0.966,21.985,2.868
	c2.941,0.805,3.179,1.145,3.183,4.547v65.415c-0.002,1.288-0.148,2.422-2.03,1.821c-0.434-0.141-10.07-2.77-12.696-3.415
	c-4.29-1.033-8.887-1.557-13.664-1.557c-5.849,0-11.137,0.794-14.366,1.459c-3.123,0.645-4.668,1.113-5.802,1.518
	c-1.163,0.343-1.984,0.46-1.985-0.828V13.439z"/>
<path fill="#4D4D4D" d="M16.869,18.621c-0.262-0.171-0.628-0.21-1.1-0.116l-1.863,0.372v2.979l1.863-0.373
	c0.472-0.095,0.838-0.288,1.1-0.584c0.262-0.295,0.393-0.704,0.393-1.232C17.261,19.142,17.13,18.792,16.869,18.621z"/>
<path fill="#4D4D4D" d="M24.939,17.053l-1.933,0.23v6.601l1.933-0.229c0.989-0.118,1.679-0.692,2.069-1.724
	c0.213-0.565,0.32-1.221,0.32-1.965c0-1.029-0.16-1.802-0.479-2.315C26.528,17.14,25.893,16.94,24.939,17.053z"/>
<path fill="#4D4D4D" d="M40.327,12.228c0,0-2.885-0.259-4.133-0.259c-13.878,0-26.257,3.707-26.257,3.707l-0.03,15.434
	c0,0,11.342-3.607,25.983-3.607c1.46,0,4.104,0.222,4.104,0.222s1.983,0,1.983-1.632c0-1.63,0-10.564,0-12.121
	C41.978,12.414,40.327,12.228,40.327,12.228z M18.446,21.95c-0.579,0.609-1.406,1.021-2.481,1.236l-2.06,0.412v3.638l-2.053,0.409
	V17.531l4.248-0.85c0.979-0.193,1.76-0.09,2.342,0.315c0.583,0.404,0.874,1.153,0.874,2.247
	C19.315,20.438,19.025,21.339,18.446,21.95z M28.653,23.083c-0.726,1.344-1.845,2.105-3.36,2.286l-4.318,0.514V15.768l4.318-0.514
	c0.622-0.065,1.138-0.054,1.551,0.035c0.703,0.149,1.272,0.51,1.707,1.08c0.349,0.461,0.587,0.979,0.714,1.547
	c0.127,0.57,0.191,1.122,0.191,1.652C29.456,20.915,29.188,22.084,28.653,23.083z M38.237,16.544c0,0-1.754-0.128-2.827-0.128
	s-2.271,0.202-2.271,0.202v2.325c0,0,1.384-0.19,2.309-0.19c0.924,0,2.271,0.127,2.271,0.127v1.757c0,0-1.323-0.09-2.165-0.09
	S33.139,20.7,33.139,20.7v4.06l-2.094,0.16V14.819c0,0,2.78-0.292,4.327-0.292c1.546,0,2.865,0.167,2.865,0.167V16.544z"/>
<path fill="#4D4D4D" d="M67.896,64.976c-0.09,0-0.178-0.023-0.256-0.071c-0.201-0.119-0.318-0.338-0.35-0.646
	c-0.154-1.522,1.654-6.814,8.031-12.645c0.198-0.182,0.504-0.172,0.692,0.016c0.189,0.192,0.194,0.499,0.013,0.696
	c-3.54,3.835-5.868,8.452-6.564,10.582c3.091-3.032,7.6-12.072,12.063-21.543c0.01-0.053,0.139-0.335,0.507-1.135
	c0.8-1.743,2.287-4.984,3.026-7.266c0.524-1.408,0.968-2.694,1.363-3.946c-1.607-5.167-1.795-10.21-1.146-12.544
	c0.329-1.275,1.094-1.595,1.677-1.636c0.301-0.023,0.604-0.041,0.906-0.058c0.076-0.005,0.164-0.011,0.265-0.011
	c0.555,0,0.991,0.188,1.296,0.559c0.455,0.557,0.556,1.454,0.301,2.749c-0.047,0.241-0.262,0.397-0.504,0.405
	c-0.245-0.008-0.448-0.189-0.482-0.431c-0.159-1.132-0.616-1.716-1-2.015c-0.108,0.156-0.256,0.395-0.411,0.698
	c-0.393,1.204-0.364,4.097,0.375,7.589c0.232-1.036,0.397-1.919,0.541-2.682c0.139-0.74,0.256-1.368,0.393-1.915
	c0.062-0.247,0.3-0.415,0.554-0.374c0.252,0.035,0.438,0.252,0.433,0.51l-0.022,1.037c-0.055,2.664-0.102,4.97-0.665,7.799
	c0.93,2.631,2.111,4.984,3.512,6.993c0.862,1.302,1.942,2.58,3.408,4.032c1.153,1.016,2.394,2.081,3.639,3.147l0.203,0.173
	c6.449,0.739,11.637,3.974,12.943,6.7c0.505,1.053,0.301,1.763,0.039,2.173c-0.124,0.196-0.365,0.278-0.582,0.206
	c-0.218-0.074-0.358-0.289-0.339-0.521c0.095-1.078-3.042-4.05-8.618-5.626c0.148,0.127,0.296,0.252,0.443,0.378
	c3.199,2.725,6.51,5.541,7.634,5.607c0.145,0.01,0.277,0.081,0.366,0.194c0.089,0.115,0.122,0.263,0.095,0.405
	c-0.098,0.49-0.464,0.782-0.979,0.782c-1.44,0-4.631-2.428-9.715-6.388c-0.784-0.609-1.582-1.23-2.378-1.845
	c-0.93-0.109-1.901-0.164-2.891-0.164c-5.248,0-10.948,1.553-15.283,4.155c-5.85,11.183-9.164,15.746-11.428,15.752
	c-0.319,0.031-0.683,0.072-1.043,0.116C67.937,64.976,67.916,64.976,67.896,64.976z M87.335,34.355l-0.099,0.252
	c-1.178,2.962-2.01,4.966-2.475,5.954c-0.1,0.246-0.258,0.553-0.434,0.886c-0.185,0.352-0.388,0.737-0.559,1.146
	c-0.836,1.659-1.624,3.204-2.371,4.648c4.505-2.649,9.657-4.206,14.479-4.355c-0.704-0.597-1.292-1.112-1.833-1.609
	c-1.346-1.177-2.533-2.624-3.415-3.753c-1.051-1.416-1.979-3.001-2.771-4.732c-0.158,0.501-0.327,1.01-0.51,1.53
	C87.345,34.333,87.341,34.345,87.335,34.355z"/>
<path fill="#4D4D4D" d="M56.217,38.171c-0.078,0-0.156-0.01-0.235-0.027c-12.945-3.118-26.63-3.118-39.575,0
	c-0.535,0.127-1.078-0.203-1.207-0.743c-0.129-0.54,0.202-1.08,0.74-1.211c13.25-3.188,27.259-3.188,40.51,0
	c0.537,0.131,0.869,0.671,0.74,1.211C57.079,37.861,56.669,38.171,56.217,38.171z"/>
<path fill="#4D4D4D" d="M56.217,48.209c-0.078,0-0.156-0.011-0.235-0.028c-12.945-3.117-26.63-3.117-39.575,0
	c-0.535,0.128-1.078-0.202-1.207-0.742c-0.129-0.54,0.202-1.081,0.74-1.211c13.25-3.188,27.259-3.188,40.51,0
	c0.537,0.13,0.869,0.671,0.74,1.211C57.079,47.899,56.669,48.209,56.217,48.209z"/>
<path fill="#4D4D4D" d="M56.217,58.247c-0.078,0-0.156-0.01-0.235-0.027c-12.945-3.117-26.63-3.117-39.575,0
	c-0.535,0.128-1.078-0.202-1.207-0.742c-0.129-0.54,0.202-1.081,0.74-1.211c13.25-3.189,27.259-3.189,40.51,0
	c0.537,0.13,0.869,0.671,0.74,1.211C57.079,57.937,56.669,58.247,56.217,58.247z"/>
<path fill="#4D4D4D" d="M56.217,68.285c-0.078,0-0.156-0.01-0.235-0.027c-12.945-3.117-26.63-3.117-39.575,0
	c-0.535,0.128-1.078-0.202-1.207-0.742c-0.129-0.54,0.202-1.081,0.74-1.211c13.25-3.189,27.259-3.189,40.51,0
	c0.537,0.13,0.869,0.671,0.74,1.211C57.079,67.975,56.669,68.285,56.217,68.285z"/>
</svg>
