<?xml version="1.0" encoding="utf-8"?>
<!-- Generator: Adobe Illustrator 15.0.2, SVG Export Plug-In  -->
<!DOCTYPE svg PUBLIC "-//W3C//DTD SVG 1.1//EN" "http://www.w3.org/Graphics/SVG/1.1/DTD/svg11.dtd" [
	<!ENTITY ns_flows "http://ns.adobe.com/Flows/1.0/">
]>
<svg version="1.1"
	 xmlns="http://www.w3.org/2000/svg" xmlns:xlink="http://www.w3.org/1999/xlink" xmlns:a="http://ns.adobe.com/AdobeSVGViewerExtensions/3.0/"
	 x="0px" y="0px" width="124px" height="90px" viewBox="0 0 124 90" overflow="visible" enable-background="new 0 0 124 90"
	 xml:space="preserve">
<defs>
</defs>
<path fill="#FFB97D" d="M119.558,12.045c-0.31-5.085-2.424-7.568-7.457-8.968C104.585,1.047,96.637,0.014,88.762,0
	c-7.819,0-15.617,1.035-23.179,3.077c-1.445,0.401-2.61,0.874-3.562,1.451c-0.952-0.577-2.116-1.051-3.559-1.451
	C50.896,1.033,42.954,0,35.137,0C27.34,0.014,19.306,1.077,11.9,3.077c-5.089,1.414-7.198,3.944-7.47,9.155
	c-3.124,1.732-4.425,4.524-4.43,9.3v60.131c0.001,1.125,0.003,3,0.668,4.685C1.598,88.702,3.544,90,6.149,90
	c1.046,0,2.188-0.196,3.94-0.679c8.123-2.496,16.42-3.993,23.886-4.062c5.777,0,11.921,1.497,17.86,2.945
	c1.668,0.406,3.242,0.79,4.813,1.143C58.6,89.77,60.445,89.99,62,89.99c0.84,0,3.658-0.198,5.394-0.668
	c1.748-0.396,3.567-0.849,5.328-1.288c5.839-1.458,11.877-2.966,17.548-2.966c7.697,0.182,15.635,1.603,23.699,4.084
	c1.689,0.463,2.851,0.661,3.881,0.661c2.605,0,4.552-1.297,5.481-3.651c0.665-1.686,0.667-3.562,0.669-4.684V21.347
	C123.996,17.775,123.425,14.212,119.558,12.045z"/>
<path fill="#4D4D4D" d="M117.628,13.329c-0.024-5.085-1.445-7.036-6.047-8.315c-7.34-1.981-15.075-2.993-22.672-3.006h-0.147
	c-7.648,0-15.271,1.011-22.674,3.01c-1.817,0.505-3.133,1.12-4.066,1.989c-0.936-0.87-2.253-1.486-4.077-1.993
	c-7.389-1.995-15.013-3.006-22.66-3.006h-0.147c-7.596,0.013-15.377,1.024-22.732,3.01c-4.62,1.284-6.03,3.251-6.034,8.419v0.079
	c-3.308,1.387-4.396,3.539-4.4,8.019v60.129c0.002,2.055,0.007,6.33,4.18,6.329c0.849,0,1.856-0.178,3.426-0.609
	c7.858-2.414,14.989-3.797,23.138-4.108c8.003-0.303,16.711,2.395,24.358,4.111c1.815,0.394,3.53,0.598,4.927,0.598
	c0.85,0,3.5-0.218,4.927-0.612c7.854-1.771,16.576-4.617,24.673-4.282c8.045,0.339,15.07,1.721,22.88,4.125
	c1.513,0.414,2.521,0.592,3.37,0.592c4.174,0,4.179-4.274,4.181-6.33V21.347C122.025,16.87,120.94,14.718,117.628,13.329z
	 M63.993,13.438c0.003-3.403,0.238-3.743,3.118-4.544c7.06-1.906,14.343-2.872,21.65-2.872h0.141
	c7.259,0.013,14.656,0.979,21.655,2.868c2.894,0.805,3.128,1.146,3.132,4.546v64.411c-0.002,1.289-0.652,1.327-1.954,0.831
	c-0.948-0.419-2.64-0.874-5.71-1.518c-3.179-0.666-8.335-1.459-14.092-1.459c-4.702,0-9.213,0.585-13.457,1.559
	c-5.267,1.208-12.116,3.291-12.486,3.413c-1.574,0.521-1.996-0.533-1.997-1.82V13.438z M10.311,13.438
	c0.003-3.403,0.237-3.743,3.117-4.544c7.014-1.894,14.458-2.859,21.716-2.872h0.141c7.307,0,14.591,0.966,21.638,2.868
	c2.893,0.805,3.127,1.145,3.131,4.546v65.415c-0.002,1.289-0.146,2.423-1.999,1.821c-0.427-0.14-9.91-2.769-12.493-3.414
	c-4.223-1.033-8.746-1.557-13.447-1.557c-5.757,0-10.961,0.793-14.139,1.459c-3.073,0.644-4.594,1.112-5.71,1.518
	c-1.145,0.343-1.953,0.459-1.954-0.829V13.438z"/>
<path fill="#4D4D4D" d="M16.601,18.621c-0.258-0.172-0.619-0.211-1.083-0.116l-1.833,0.372v2.978l1.833-0.371
	c0.464-0.096,0.825-0.289,1.083-0.584c0.257-0.295,0.386-0.705,0.386-1.231C16.987,19.143,16.858,18.793,16.601,18.621z"/>
<path fill="#4D4D4D" d="M24.543,17.054l-1.902,0.229v6.601l1.902-0.229c0.974-0.117,1.652-0.691,2.036-1.722
	c0.21-0.565,0.315-1.221,0.315-1.966c0-1.029-0.157-1.801-0.472-2.314C26.107,17.14,25.481,16.939,24.543,17.054z"/>
<path fill="#4D4D4D" d="M39.687,12.229c0,0-2.839-0.26-4.067-0.26c-13.657,0-25.84,3.707-25.84,3.707L9.75,31.109
	c0,0,11.162-3.608,25.572-3.608c1.436,0,4.038,0.223,4.038,0.223s1.952,0,1.952-1.631c0-1.632,0-10.565,0-12.122
	S39.687,12.229,39.687,12.229z M18.153,21.95c-0.57,0.609-1.384,1.021-2.441,1.235l-2.027,0.412v3.637l-2.021,0.411V17.53
	l4.18-0.849c0.963-0.195,1.731-0.091,2.305,0.314s0.859,1.154,0.859,2.248C19.008,20.438,18.724,21.34,18.153,21.95z M28.198,23.082
	c-0.714,1.344-1.816,2.106-3.307,2.287l-4.25,0.514V15.769l4.25-0.514c0.612-0.065,1.12-0.053,1.526,0.035
	c0.692,0.148,1.252,0.51,1.68,1.079c0.344,0.462,0.578,0.979,0.703,1.548c0.125,0.57,0.188,1.121,0.188,1.651
	C28.988,20.914,28.724,22.085,28.198,23.082z M37.63,16.545c0,0-1.727-0.128-2.782-0.128c-1.057,0-2.235,0.201-2.235,0.201v2.326
	c0,0,1.362-0.191,2.272-0.191c0.909,0,2.235,0.129,2.235,0.129v1.757c0,0-1.302-0.091-2.131-0.091s-2.377,0.153-2.377,0.153v4.058
	l-2.061,0.16V14.818c0,0,2.736-0.291,4.259-0.291c1.521,0,2.819,0.167,2.819,0.167V16.545z"/>
<path fill="#4D4D4D" d="M74.127,51.614c0.194-0.183,0.495-0.173,0.681,0.017c0.186,0.19,0.191,0.497,0.013,0.694
	c-3.483,3.836-5.775,8.453-6.462,10.582c5.822-6.643,15.329-28.55,16.691-33.89c-1.582-5.167-1.724-10.197-1.127-12.545
	c0.648-2.55,3.653-1.703,4.076-1.145c0.432,0.571,0.547,1.456,0.298,2.75c-0.048,0.24-0.259,0.397-0.497,0.404
	c-0.24-0.007-0.441-0.189-0.475-0.432c-0.157-1.13-0.607-1.715-0.983-2.013c-0.957,1.045-0.764,4.793-0.036,8.288
	c0.229-1.038,0.784-4.052,0.918-4.598c0.062-0.248,0.297-0.417,0.544-0.374c0.249,0.034,0.433,0.253,0.427,0.509
	c0,0,0.018,5.372-0.675,8.836c3.025,8.962,9.261,13.188,10.59,14.346c6.347,0.739,11.451,3.974,12.737,6.7
	c0.497,1.053,0.296,1.763,0.039,2.173c-0.121,0.196-0.359,0.278-0.573,0.206c-0.215-0.075-0.352-0.288-0.332-0.519
	c0.091-1.08-2.995-4.051-8.482-5.627c0.146,0.126,6.435,5.797,7.947,5.985c0.142,0.018,0.275,0.079,0.361,0.194
	c0.088,0.115,0.121,0.263,0.094,0.405c-0.098,0.489-0.465,0.688-0.964,0.782c-1.568,0.297-11.118-7.618-11.902-8.232
	c-3.839-0.557-11.897,0.233-17.884,3.992c-5.758,11.18-9.247,16.351-12.272,15.866C64.85,64.595,67.849,57.442,74.127,51.614z
	 M85.948,34.356l-0.097,0.25c-1.159,2.962-1.978,4.966-2.436,5.955c-0.098,0.246-0.255,0.552-0.427,0.885
	c-0.182,0.353-0.38,0.737-0.55,1.147c-0.822,1.659-1.597,3.203-2.333,4.648c4.435-2.651,9.504-4.208,14.249-4.356
	c-0.693-0.596-1.271-1.112-1.805-1.609c-1.325-1.177-2.491-2.624-3.36-3.752c-1.034-1.415-1.947-3.002-2.727-4.733
	c-0.155,0.502-0.322,1.01-0.503,1.531C85.957,34.334,85.953,34.346,85.948,34.356z"/>
<path fill="#4D4D4D" d="M55.209,38.156C55.132,38.156,55.286,38.175,55.209,38.156c-12.74-3.117-26.323-3.131-39.063-0.014
	c-0.526,0.128-1.061-0.201-1.188-0.741c-0.127-0.54,0.199-1.082,0.728-1.211c13.04-3.19,26.828-3.19,39.867,0
	c0.529,0.129,0.855,0.671,0.728,1.211C56.172,37.861,55.653,38.156,55.209,38.156z"/>
<path fill="#4D4D4D" d="M55.209,48.194C55.132,48.194,55.286,48.213,55.209,48.194c-12.74-3.117-26.323-3.131-39.063-0.014
	c-0.526,0.128-1.061-0.201-1.188-0.742c-0.127-0.539,0.199-1.081,0.728-1.21c13.04-3.19,26.828-3.19,39.867,0
	c0.529,0.129,0.855,0.671,0.728,1.21C56.172,47.899,55.653,48.194,55.209,48.194z"/>
<path fill="#4D4D4D" d="M55.209,58.232C55.132,58.232,55.286,58.251,55.209,58.232c-12.74-3.117-26.323-3.131-39.063-0.014
	c-0.526,0.128-1.061-0.202-1.188-0.742c-0.127-0.539,0.199-1.081,0.728-1.21c13.04-3.19,26.828-3.19,39.867,0
	c0.529,0.129,0.855,0.671,0.728,1.21C56.172,57.938,55.653,58.232,55.209,58.232z"/>
<path fill="#4D4D4D" d="M55.209,68.271C55.132,68.271,55.286,68.289,55.209,68.271c-12.74-3.117-26.323-3.131-39.063-0.014
	c-0.526,0.128-1.061-0.202-1.188-0.742c-0.127-0.539,0.199-1.081,0.728-1.21c13.04-3.19,26.828-3.19,39.867,0
	c0.529,0.129,0.855,0.671,0.728,1.21C56.172,67.976,55.653,68.271,55.209,68.271z"/>
</svg>
