<?xml version="1.0" encoding="utf-8"?>
<!-- Generator: Adobe Illustrator 15.0.2, SVG Export Plug-In  -->
<!DOCTYPE svg PUBLIC "-//W3C//DTD SVG 1.1//EN" "http://www.w3.org/Graphics/SVG/1.1/DTD/svg11.dtd" [
	<!ENTITY ns_flows "http://ns.adobe.com/Flows/1.0/">
]>
<svg version="1.1"
	 xmlns="http://www.w3.org/2000/svg" xmlns:xlink="http://www.w3.org/1999/xlink" xmlns:a="http://ns.adobe.com/AdobeSVGViewerExtensions/3.0/"
	 x="0px" y="0px" width="128px" height="128px" viewBox="-3 -17.251 128 128"
	 overflow="visible" enable-background="new -3 -17.251 128 128" xml:space="preserve">
<defs>
</defs>
<path fill="#FFFFFF" d="M63.944,0H16.979C7.617,0,0,7.616,0,16.978v30.99c0,9.362,7.617,16.979,16.979,16.979h7.582
	c-0.082,1.189-0.608,2.807-2.264,4.73c-1.081,1.252-1.332,3.034-0.642,4.539c0.689,1.503,2.205,2.475,3.858,2.475
	c10.211,0,15.635-7.443,17.915-11.744h7.525v1.963c0,8.406,6.838,15.243,15.242,15.243h17.943
	c2.236,4.171,7.52,11.345,17.376,11.345c0.005,0,0.008,0,0.011,0c0.004,0,0.008,0,0.012,0c2.34,0,4.244-1.904,4.244-4.246
	c0-1.125-0.453-2.213-1.249-3.007c-1.339-1.631-1.812-3.029-1.915-4.092h4.14c8.405,0,15.243-6.837,15.243-15.243V40.145
	c0-8.405-6.838-15.243-15.243-15.243H80.924v-7.924C80.924,7.616,73.307,0,63.944,0L63.944,0z"/>
<path fill="none" stroke="#333333" stroke-width="4" stroke-miterlimit="10" d="M53.197,59.825v-19.68
	c0-7.167,5.831-12.998,12.998-12.998H75.8"/>
<path fill="none" stroke="#4D4D4D" stroke-width="4" stroke-linecap="round" stroke-linejoin="round" d="M106.757,29.147H76.678
	V16.978c0-7.033-5.701-12.733-12.733-12.733H16.979c-7.032,0-12.734,5.701-12.734,12.733v30.99c0,7.033,5.702,12.734,12.734,12.734
	h10.866c0,0,3.295,5.209-2.332,11.743c11.073,0,15.193-11.743,15.193-11.743h14.491v6.207c0,6.073,4.924,10.999,10.998,10.999
	h20.656c0,0,4.004,11.343,14.663,11.343c-5.417-6.29-2.244-11.343-2.244-11.343h7.486c6.073,0,10.998-4.926,10.998-10.999V40.145
	C117.755,34.071,112.83,29.147,106.757,29.147z"/>
<path fill="none" stroke="#4D4D4D" stroke-width="4" stroke-linecap="round" stroke-linejoin="round" d="M78.8,29.147H66.195
	c-6.074,0-10.998,4.924-10.998,10.998v22.68"/>
<path fill="#4D4D4D" stroke="#4D4D4D" stroke-linecap="round" stroke-linejoin="round" d="M82.231,37.75
	c0-1.606,8.489-1.555,8.489,0c0,1.554,0,8.638,0,8.638l-0.952,14.827h-6.53l-1.007-14.827C82.231,46.387,82.231,39.356,82.231,37.75
	z"/>
<rect x="83.021" y="64.258" fill="#4D4D4D" stroke="#4D4D4D" stroke-linecap="round" stroke-linejoin="round" width="6.911" height="6.68"/>
<path fill="#4D4D4D" stroke="#4D4D4D" stroke-linecap="round" stroke-linejoin="round" d="M32.727,14.478
	c1.975-1.271,4.402-1.907,7.283-1.907c3.784,0,6.928,0.902,9.432,2.71c2.504,1.811,3.754,4.488,3.754,8.04
	c0,2.176-0.542,4.008-1.628,5.499c-0.634,0.905-1.853,2.061-3.657,3.466l-1.778,1.382c-0.968,0.755-1.611,1.633-1.929,2.639
	c-0.2,0.635-0.309,1.624-0.326,2.962h-6.806c0.1-2.83,0.366-4.785,0.802-5.864c0.433-1.08,1.552-2.322,3.354-3.731l1.83-1.43
	c0.601-0.451,1.084-0.948,1.451-1.481c0.668-0.923,1.002-1.935,1.002-3.04c0-1.272-0.372-2.431-1.115-3.479
	c-0.742-1.046-2.1-1.569-4.071-1.569c-1.938,0-3.313,0.646-4.122,1.934c-0.811,1.291-1.215,2.629-1.215,4.02h-7.259
	C27.928,19.852,29.594,16.47,32.727,14.478z"/>
<rect x="36.895" y="42.709" fill="#4D4D4D" stroke="#4D4D4D" stroke-linecap="round" stroke-linejoin="round" width="7.51" height="7.259"/>
</svg>
