<?xml version="1.0" encoding="utf-8"?>
<!-- Generator: Adobe Illustrator 15.0.2, SVG Export Plug-In  -->
<!DOCTYPE svg PUBLIC "-//W3C//DTD SVG 1.1//EN" "http://www.w3.org/Graphics/SVG/1.1/DTD/svg11.dtd" [
	<!ENTITY ns_flows "http://ns.adobe.com/Flows/1.0/">
]>
<svg version="1.1"
	 xmlns="http://www.w3.org/2000/svg" xmlns:xlink="http://www.w3.org/1999/xlink" xmlns:a="http://ns.adobe.com/AdobeSVGViewerExtensions/3.0/"
	 x="0px" y="0px" width="122px" height="94px" viewBox="0 0 122 94" overflow="visible" enable-background="new 0 0 122 94"
	 xml:space="preserve">
<defs>
</defs>
<path fill="#A1A1FF" d="M63.944,0H16.979C7.617,0,0,7.657,0,17.069v31.157c0,9.412,7.617,17.069,16.979,17.069h7.582
	c-0.082,1.196-0.608,2.821-2.264,4.756c-1.081,1.259-1.332,3.051-0.642,4.563c0.689,1.511,2.205,2.488,3.858,2.488
	c10.211,0,15.635-7.483,17.915-11.808h7.525v1.974c0,8.451,6.838,15.325,15.242,15.325h17.943C86.375,86.788,91.658,94,101.515,94
	c0.005,0,0.008,0,0.011,0c0.004,0,0.008,0,0.012,0c2.34,0,4.244-1.914,4.244-4.269c0-1.132-0.453-2.226-1.249-3.023
	c-1.339-1.64-1.812-3.046-1.915-4.113h4.14c8.405,0,15.243-6.874,15.243-15.325V40.361c0-8.451-6.838-15.325-15.243-15.325H80.924
	v-7.967C80.924,7.657,73.307,0,63.944,0L63.944,0z"/>
<path fill="#333333" d="M55.197,60.146h-4V40.361c0-8.309,6.729-15.068,14.998-15.068H75.8v4h-9.604
	c-6.064,0-10.998,4.965-10.998,11.068V60.146z"/>
<path fill="#4D4D4D" d="M101.534,91.731c-0.005,0-0.013,0-0.02,0c-9.732,0-14.474-8.12-15.993-11.404H66.195
	c-7.167,0-12.998-5.857-12.998-13.058v-4.24H42.04c-1.542,3.363-6.421,11.806-16.527,11.806c-0.781,0-1.49-0.455-1.817-1.164
	s-0.21-1.544,0.298-2.137c3.283-3.832,2.985-6.992,2.536-8.504h-9.551c-8.125,0-14.734-6.641-14.734-14.803V17.069
	c0-8.162,6.609-14.801,14.734-14.801h46.965c8.124,0,14.733,6.64,14.733,14.801v10.234h28.079c7.167,0,12.998,5.857,12.998,13.058
	V67.27c0,7.2-5.831,13.058-12.998,13.058h-6.164c-0.41,1.436-0.661,4.379,2.299,7.935c0.396,0.365,0.643,0.888,0.643,1.469
	C103.534,90.836,102.64,91.731,101.534,91.731z M40.706,59.029h14.491c1.104,0,2,0.896,2,2v6.24c0,4.995,4.036,9.058,8.998,9.058
	h20.656c0.85,0,1.605,0.536,1.887,1.337c0.121,0.338,2.599,7.083,8.658,9.339c-2.417-5.451,0.047-9.526,0.178-9.736
	c0.365-0.585,1.007-0.94,1.696-0.94h7.486c4.962,0,8.998-4.063,8.998-9.058V40.361c0-4.994-4.036-9.058-8.998-9.058H76.678
	c-1.104,0-2-0.896-2-2V17.069c0-5.956-4.815-10.801-10.733-10.801H16.979c-5.918,0-10.734,4.845-10.734,10.801v31.157
	c0,5.957,4.815,10.803,10.734,10.803h10.866c0.688,0,1.327,0.353,1.693,0.935c0.136,0.216,2.725,4.467,0.113,10.161
	c6.5-2.34,9.136-9.667,9.166-9.755C39.098,59.567,39.855,59.029,40.706,59.029z"/>
<path fill="#4D4D4D" d="M55.197,65.162c-1.104,0-2-0.896-2-2V40.361c0-7.2,5.831-13.058,12.998-13.058H78.8c1.104,0,2,0.896,2,2
	s-0.896,2-2,2H66.195c-4.962,0-8.998,4.063-8.998,9.058v22.801C57.197,64.267,56.302,65.162,55.197,65.162z"/>
<path fill="#4D4D4D" stroke="#4D4D4D" stroke-linecap="round" stroke-linejoin="round" d="M82.231,37.953
	c0-1.615,8.489-1.563,8.489,0c0,1.562,0,8.684,0,8.684l-0.952,14.907h-6.53l-1.007-14.907
	C82.231,46.637,82.231,39.567,82.231,37.953z"/>
<rect x="83.021" y="64.604" fill="#4D4D4D" stroke="#4D4D4D" stroke-linecap="round" stroke-linejoin="round" width="6.911" height="6.716"/>
<path fill="#4D4D4D" stroke="#4D4D4D" stroke-linecap="round" stroke-linejoin="round" d="M32.727,14.555
	c1.975-1.277,4.402-1.917,7.283-1.917c3.784,0,6.928,0.907,9.432,2.725c2.504,1.82,3.754,4.513,3.754,8.083
	c0,2.188-0.542,4.029-1.628,5.528c-0.634,0.91-1.853,2.072-3.657,3.484l-1.778,1.39c-0.968,0.759-1.611,1.642-1.929,2.653
	c-0.2,0.638-0.309,1.633-0.326,2.978h-6.806c0.1-2.846,0.366-4.811,0.802-5.896c0.433-1.086,1.552-2.335,3.354-3.752l1.83-1.438
	c0.601-0.453,1.084-0.953,1.451-1.489c0.668-0.928,1.002-1.945,1.002-3.057c0-1.279-0.372-2.443-1.115-3.498
	c-0.742-1.051-2.1-1.577-4.071-1.577c-1.938,0-3.313,0.648-4.122,1.943c-0.811,1.298-1.215,2.644-1.215,4.041h-7.259
	C27.928,19.959,29.594,16.56,32.727,14.555z"/>
<rect x="36.895" y="42.939" fill="#4D4D4D" stroke="#4D4D4D" stroke-linecap="round" stroke-linejoin="round" width="7.51" height="7.298"/>
</svg>
