<?xml version="1.0" encoding="utf-8"?>
<!-- Generator: Adobe Illustrator 15.0.2, SVG Export Plug-In  -->
<!DOCTYPE svg PUBLIC "-//W3C//DTD SVG 1.1//EN" "http://www.w3.org/Graphics/SVG/1.1/DTD/svg11.dtd" [
	<!ENTITY ns_flows "http://ns.adobe.com/Flows/1.0/">
]>
<svg version="1.1"
	 xmlns="http://www.w3.org/2000/svg" xmlns:xlink="http://www.w3.org/1999/xlink" xmlns:a="http://ns.adobe.com/AdobeSVGViewerExtensions/3.0/"
	 x="0px" y="0px" width="41px" height="57px" viewBox="-0.409 -0.991 41 57"
	 overflow="visible" enable-background="new -0.409 -0.991 41 57" xml:space="preserve">
<defs>
</defs>
<path fill="#FFFFFF" d="M34.073,4.219C30.194,1.419,25.354,0,19.685,0c-4.44,0-8.297,1.033-11.464,3.07
	c-5.137,3.269-7.903,8.706-8.217,16.156c-0.047,1.083,0.357,2.154,1.11,2.938c0.749,0.782,1.802,1.23,2.886,1.23h9.271
	c2.206,0,4-1.794,4-4c0-1.03,0.299-1.986,0.939-3.007c0.103-0.164,0.373-0.595,1.875-0.595c1.55,0,1.95,0.335,1.954,0.339
	c0.451,0.641,0.67,1.317,0.67,2.108c0,0.566-0.161,1.041-0.521,1.541c-0.274,0.396-0.597,0.723-1.011,1.034l-2.4,1.875
	c-2.899,2.268-4.71,4.371-5.533,6.431c-0.745,1.847-1.161,4.655-1.308,8.834c-0.035,1.029,0.346,2.038,1.029,2.802
	c-0.646,0.711-1.051,1.646-1.051,2.68v8.412c0,2.206,1.794,4,4,4h8.701c2.206,0,4-1.794,4-4v-8.412c0-1.029-0.401-1.96-1.043-2.67
	c0.635-0.698,1.038-1.61,1.052-2.619c0.024-1.918,0.213-2.575,0.234-2.645c0.152-0.481,0.516-0.945,1.105-1.405l2.267-1.761
	c2.646-2.062,4.442-3.792,5.491-5.291c1.852-2.541,2.802-5.686,2.802-9.316C40.523,11.859,38.354,7.314,34.073,4.219z"/>
<path fill="#333333" d="M24.615,41.434h-8.701c-1.104,0-2,0.896-2,2v8.412c0,1.104,0.896,2,2,2h8.701c1.104,0,2-0.896,2-2v-8.412
	C26.615,42.33,25.72,41.434,24.615,41.434L24.615,41.434z"/>
<path fill="#333333" d="M19.685,2c-4.05,0-7.543,0.926-10.382,2.752C4.746,7.651,2.286,12.551,2.002,19.31
	c-0.023,0.544,0.177,1.075,0.555,1.468C2.934,21.171,3.455,21.394,4,21.394h9.271c1.104,0,2-0.896,2-2
	c0-1.404,0.407-2.735,1.245-4.07c0.412-0.658,1.231-1.532,3.569-1.532c1.82,0,3.021,0.391,3.568,1.162
	c0.71,1.002,1.056,2.077,1.056,3.285c0,0.986-0.295,1.873-0.9,2.711c-0.377,0.546-0.85,1.026-1.433,1.463l-2.368,1.851
	c-2.613,2.044-4.219,3.875-4.908,5.598c-0.647,1.604-1.029,4.275-1.165,8.161c-0.019,0.542,0.184,1.068,0.561,1.459
	c0.377,0.39,0.896,0.61,1.438,0.61h8.69c1.095,0,1.985-0.88,2-1.974c0.025-1.976,0.215-2.86,0.324-3.212
	c0.281-0.888,0.865-1.671,1.786-2.389l2.269-1.763c2.486-1.937,4.147-3.525,5.08-4.858c1.612-2.213,2.44-4.972,2.44-8.169
	c0-5.191-1.892-9.19-5.622-11.888C29.371,3.292,24.925,2,19.685,2L19.685,2z"/>
<rect x="15.914" y="43.434" fill="#FFD400" width="8.701" height="8.412"/>
<path fill="#FFD400" d="M10.385,6.434C12.905,4.813,16.005,4,19.685,4c4.833,0,8.848,1.152,12.045,3.46
	c3.197,2.312,4.794,5.731,4.794,10.268c0,2.779-0.692,5.119-2.079,7.023c-0.809,1.156-2.365,2.631-4.669,4.425l-2.271,1.765
	c-1.236,0.965-2.059,2.086-2.464,3.368c-0.255,0.813-0.394,2.075-0.416,3.783h-8.69c0.126-3.612,0.467-6.11,1.022-7.487
	c0.553-1.381,1.983-2.966,4.284-4.766l2.336-1.827c0.768-0.576,1.385-1.21,1.854-1.892c0.852-1.178,1.279-2.471,1.279-3.883
	c0-1.625-0.476-3.104-1.425-4.442c-0.947-1.335-2.682-2.004-5.199-2.004c-2.475,0-4.231,0.824-5.264,2.469
	c-1.034,1.648-1.551,3.357-1.551,5.133H4C4.257,13.298,6.385,8.979,10.385,6.434z"/>
</svg>
