<?xml version="1.0" encoding="utf-8"?>
<!-- Generator: Adobe Illustrator 15.0.2, SVG Export Plug-In  -->
<!DOCTYPE svg PUBLIC "-//W3C//DTD SVG 1.1//EN" "http://www.w3.org/Graphics/SVG/1.1/DTD/svg11.dtd" [
	<!ENTITY ns_flows "http://ns.adobe.com/Flows/1.0/">
]>
<svg version="1.1"
	 xmlns="http://www.w3.org/2000/svg" xmlns:xlink="http://www.w3.org/1999/xlink" xmlns:a="http://ns.adobe.com/AdobeSVGViewerExtensions/3.0/"
	 x="0px" y="0px" width="128px" height="128px" viewBox="-18.623 -11.064 128 128"
	 overflow="visible" enable-background="new -18.623 -11.064 128 128" xml:space="preserve">
<defs>
</defs>
<path fill="#FFFFFF" d="M59.954,0H7.414c-1.298,0-2.4,0.642-2.999,1.243L1.243,4.405C0.453,5.192,0,6.282,0,7.397v94.244
	c0,2.333,1.899,4.229,4.234,4.229H83.34c1.131,0,2.193-0.438,2.992-1.237l3.178-3.166l0.057-0.056l0.051-0.061
	c0.733-0.849,1.137-1.871,1.137-2.877V30.736c0-1.478-0.496-4.445-3.814-7.729C84.719,20.809,67.6,3.823,66.517,2.739
	C64.879,1.101,62.243,0,59.954,0L59.954,0z"/>
<path fill="#4D4D4D" d="M85.453,24.51C83.125,22.207,66.05,5.264,65.022,4.234c-1.333-1.333-3.483-2.12-5.068-2.12s-52.54,0-52.54,0
	c-0.793,0-1.369,0.488-1.5,0.621L2.735,5.903C2.337,6.299,2.114,6.837,2.114,7.397v94.244c0,1.17,0.949,2.115,2.12,2.115H83.34
	c0.562,0,1.102-0.223,1.499-0.619l3.179-3.169c0.458-0.53,0.622-1.092,0.622-1.494c0,0,0-66.082,0-67.738
	C88.64,29.082,87.78,26.813,85.453,24.51z M23.038,91.192c0,1.614-1.309,2.923-2.922,2.923h-6.685c-1.615,0-2.923-1.309-2.923-2.923
	v-5.203c0-1.612,1.308-2.922,2.923-2.922h6.685c1.613,0,2.922,1.31,2.922,2.922V91.192z M23.038,76.391
	c0,1.615-1.309,2.923-2.922,2.923h-6.685c-1.615,0-2.923-1.308-2.923-2.923v-5.203c0-1.612,1.308-2.922,2.923-2.922h6.685
	c1.613,0,2.922,1.31,2.922,2.922V76.391z M23.038,61.588c0,1.616-1.309,2.924-2.922,2.924h-6.685c-1.615,0-2.923-1.308-2.923-2.924
	v-5.202c0-1.612,1.308-2.922,2.923-2.922h6.685c1.613,0,2.922,1.31,2.922,2.922V61.588z M23.038,46.786
	c0,1.616-1.309,2.923-2.922,2.923h-6.685c-1.615,0-2.923-1.307-2.923-2.923v-5.202c0-1.612,1.308-2.922,2.923-2.922h6.685
	c1.613,0,2.922,1.31,2.922,2.922V46.786z M23.038,31.984c0,1.615-1.309,2.923-2.922,2.923h-6.685c-1.615,0-2.923-1.308-2.923-2.923
	v-5.202c0-1.612,1.308-2.922,2.923-2.922h6.685c1.613,0,2.922,1.31,2.922,2.922V31.984z M23.038,17.184
	c0,1.615-1.309,2.923-2.922,2.923h-6.685c-1.615,0-2.923-1.308-2.923-2.923V11.98c0-1.612,1.308-2.922,2.923-2.922h6.685
	c1.613,0,2.922,1.31,2.922,2.922V17.184z M83.301,91.192c0,1.614-1.307,2.923-2.922,2.923h-6.685c-1.614,0-2.923-1.309-2.923-2.923
	v-5.203c0-1.612,1.309-2.922,2.923-2.922h6.685c1.615,0,2.922,1.31,2.922,2.922V91.192z M83.301,76.391
	c0,1.615-1.307,2.923-2.922,2.923h-6.685c-1.614,0-2.923-1.308-2.923-2.923v-5.203c0-1.612,1.309-2.922,2.923-2.922h6.685
	c1.615,0,2.922,1.31,2.922,2.922V76.391z M83.301,61.588c0,1.616-1.307,2.924-2.922,2.924h-6.685c-1.614,0-2.923-1.308-2.923-2.924
	v-5.202c0-1.612,1.309-2.922,2.923-2.922h6.685c1.615,0,2.922,1.31,2.922,2.922V61.588z M83.301,46.786
	c0,1.616-1.307,2.923-2.922,2.923h-6.685c-1.614,0-2.923-1.307-2.923-2.923v-5.202c0-1.612,1.309-2.922,2.923-2.922h6.685
	c1.615,0,2.922,1.31,2.922,2.922V46.786z M66.911,30.237v66.122H26.877V6.34c0,0,32.387,0.004,33.076,0.004s1.715,0.52,2.077,0.88
	S81.954,26.99,82.478,27.516c1.616,1.616,1.933,1.563,1.933,2.72C83.915,30.235,66.911,30.237,66.911,30.237z"/>
<path fill="#333333" d="M58.392,6.34c0.827,0,2.36,0.784,2.36,1.266c0,0.312,0,18.646,0,18.646l2.223,3.985h3.936l3.861,0.033H84.36
	c0,0,0.015,1.008,0,3.078c-13.355-0.141-20.752,2.114-24.557,2.114c-2.075,0-4.316-2.096-4.316-3.925
	c0-2.999,2.791-13.478,1.057-25.198C57.837,6.298,57.466,6.34,58.392,6.34z"/>
<circle fill="none" stroke="#4D4D4D" stroke-width="4" stroke-miterlimit="10" cx="47.116" cy="51.761" r="15.859"/>
<g>
	<path fill="#4D4D4D" d="M41.406,60.808c-0.183,0-0.365-0.05-0.525-0.149c-0.295-0.183-0.475-0.504-0.475-0.851V43.948
		c0-0.347,0.18-0.669,0.475-0.851c0.16-0.1,0.343-0.149,0.525-0.149c0.153,0,0.306,0.035,0.447,0.105l15.858,7.931
		c0.339,0.17,0.553,0.516,0.553,0.895s-0.214,0.725-0.553,0.895l-15.858,7.929C41.711,60.772,41.559,60.808,41.406,60.808z"/>
	<path fill="#4D4D4D" d="M41.406,43.948l15.858,7.931l-15.858,7.929V43.948 M41.406,41.948c-0.365,0-0.73,0.101-1.052,0.299
		c-0.589,0.364-0.948,1.008-0.948,1.701v15.859c0,0.693,0.359,1.337,0.948,1.701c0.321,0.198,0.687,0.299,1.052,0.299
		c0.306,0,0.612-0.07,0.895-0.211l15.858-7.929c0.678-0.339,1.105-1.031,1.105-1.789s-0.428-1.45-1.105-1.789L42.3,42.159
		C42.018,42.019,41.711,41.948,41.406,41.948L41.406,41.948z"/>
</g>
<path fill="#4D4D4D" d="M86.129,34.129c0-1.76,0.028-1.386,0-4.219c-8.338-3.597-21.789-1.773-22.384-1.773
	s-0.911-0.363-0.911-0.843c0-0.479,2.596-8.631-1.055-21.921c-1.781,0-5.551,0.001-5.551,0.001l0.049,0.966
	c0.397,0.123,0.932,0.754,1.303,1.266c4.348,6.003,1.051,21.717,1.051,22.4c0,1.469,0.721,2.346,2.355,2.346
	C61.712,32.352,79.228,29.746,86.129,34.129z"/>
</svg>
