<?xml version="1.0" encoding="utf-8"?>
<!-- Generator: Adobe Illustrator 15.0.2, SVG Export Plug-In  -->
<!DOCTYPE svg PUBLIC "-//W3C//DTD SVG 1.1//EN" "http://www.w3.org/Graphics/SVG/1.1/DTD/svg11.dtd" [
	<!ENTITY ns_flows "http://ns.adobe.com/Flows/1.0/">
]>
<svg version="1.1"
	 xmlns="http://www.w3.org/2000/svg" xmlns:xlink="http://www.w3.org/1999/xlink" xmlns:a="http://ns.adobe.com/AdobeSVGViewerExtensions/3.0/"
	 x="0px" y="0px" width="92px" height="106px" viewBox="-0.5 -0.064 92 106"
	 overflow="visible" enable-background="new -0.5 -0.064 92 106" xml:space="preserve">
<defs>
</defs>
<path fill="#FFEE99" d="M60.116,0H7.434C6.132,0,5.027,0.642,4.427,1.243L1.246,4.405C0.455,5.192,0,6.282,0,7.397v94.244
	c0,2.333,1.905,4.229,4.246,4.229h79.32c1.134,0,2.199-0.438,3.001-1.237l3.186-3.166l0.057-0.056l0.052-0.061
	c0.735-0.849,1.14-1.871,1.14-2.877V30.736c0-1.478-0.498-4.445-3.825-7.729C84.949,20.809,67.784,3.823,66.698,2.739
	C65.055,1.101,62.412,0,60.116,0L60.116,0z"/>
<path fill="#4D4D4D" d="M85.684,24.51C83.351,22.207,66.229,5.264,65.198,4.234c-1.336-1.333-3.492-2.12-5.082-2.12
	c-1.589,0-52.682,0-52.682,0c-0.795,0-1.373,0.488-1.505,0.621L2.743,5.903C2.344,6.299,2.12,6.837,2.12,7.397v94.244
	c0,1.17,0.952,2.115,2.125,2.115h79.32c0.564,0,1.104-0.223,1.503-0.619l3.188-3.169c0.459-0.53,0.624-1.092,0.624-1.494
	c0,0,0-66.082,0-67.738C88.88,29.082,88.018,26.813,85.684,24.51z M23.1,91.192c0,1.614-1.312,2.923-2.93,2.923h-6.703
	c-1.619,0-2.931-1.309-2.931-2.923v-5.203c0-1.612,1.312-2.922,2.931-2.922h6.703c1.617,0,2.93,1.31,2.93,2.922V91.192z
	 M23.1,76.391c0,1.615-1.312,2.923-2.93,2.923h-6.703c-1.619,0-2.931-1.308-2.931-2.923v-5.203c0-1.612,1.312-2.922,2.931-2.922
	h6.703c1.617,0,2.93,1.31,2.93,2.922V76.391z M23.1,61.588c0,1.616-1.312,2.924-2.93,2.924h-6.703c-1.619,0-2.931-1.308-2.931-2.924
	v-5.202c0-1.612,1.312-2.922,2.931-2.922h6.703c1.617,0,2.93,1.31,2.93,2.922V61.588z M23.1,46.786c0,1.616-1.312,2.923-2.93,2.923
	h-6.703c-1.619,0-2.931-1.307-2.931-2.923v-5.202c0-1.612,1.312-2.922,2.931-2.922h6.703c1.617,0,2.93,1.31,2.93,2.922V46.786z
	 M23.1,31.984c0,1.615-1.312,2.923-2.93,2.923h-6.703c-1.619,0-2.931-1.308-2.931-2.923v-5.202c0-1.612,1.312-2.922,2.931-2.922
	h6.703c1.617,0,2.93,1.31,2.93,2.922V31.984z M23.1,17.184c0,1.615-1.312,2.923-2.93,2.923h-6.703c-1.619,0-2.931-1.308-2.931-2.923
	V11.98c0-1.612,1.312-2.922,2.931-2.922h6.703c1.617,0,2.93,1.31,2.93,2.922V17.184z M83.527,91.192c0,1.614-1.311,2.923-2.93,2.923
	h-6.703c-1.618,0-2.931-1.309-2.931-2.923v-5.203c0-1.612,1.312-2.922,2.931-2.922h6.703c1.619,0,2.93,1.31,2.93,2.922V91.192z
	 M83.527,76.391c0,1.615-1.311,2.923-2.93,2.923h-6.703c-1.618,0-2.931-1.308-2.931-2.923v-5.203c0-1.612,1.312-2.922,2.931-2.922
	h6.703c1.619,0,2.93,1.31,2.93,2.922V76.391z M83.527,61.588c0,1.616-1.311,2.924-2.93,2.924h-6.703
	c-1.618,0-2.931-1.308-2.931-2.924v-5.202c0-1.612,1.312-2.922,2.931-2.922h6.703c1.619,0,2.93,1.31,2.93,2.922V61.588z
	 M83.527,46.786c0,1.616-1.311,2.923-2.93,2.923h-6.703c-1.618,0-2.931-1.307-2.931-2.923v-5.202c0-1.612,1.312-2.922,2.931-2.922
	h6.703c1.619,0,2.93,1.31,2.93,2.922V46.786z M67.092,30.237v66.122H26.951V6.34c0,0,32.474,0.004,33.165,0.004
	s1.72,0.52,2.083,0.88S82.175,26.99,82.702,27.516c1.62,1.616,1.938,1.563,1.938,2.72C84.142,30.235,67.092,30.237,67.092,30.237z"
	/>
<path fill="#333333" d="M58.55,6.34c0.829,0,2.367,0.784,2.367,1.266c0,0.312,0,18.646,0,18.646l2.229,3.985h3.946l3.871,0.033
	h13.625c0,0,0.015,1.008,0,3.078c-13.392-0.141-20.808,2.114-24.623,2.114c-2.081,0-4.328-2.096-4.328-3.925
	c0-2.999,2.799-13.478,1.06-25.198C57.995,6.298,57.622,6.34,58.55,6.34z"/>
<ellipse fill="none" stroke="#4D4D4D" stroke-width="4" stroke-miterlimit="10" cx="47.244" cy="51.761" rx="15.902" ry="15.858"/>
<g>
	<path fill="#4D4D4D" d="M41.518,60.808c-0.183,0-0.365-0.05-0.526-0.149c-0.294-0.183-0.474-0.504-0.474-0.851V43.948
		c0-0.346,0.18-0.668,0.474-0.851c0.161-0.099,0.344-0.149,0.526-0.149c0.152,0,0.306,0.035,0.446,0.105l15.901,7.931
		c0.339,0.169,0.554,0.516,0.554,0.895c0,0.379-0.215,0.726-0.554,0.895l-15.901,7.929C41.824,60.773,41.67,60.808,41.518,60.808z"
		/>
	<path fill="#4D4D4D" d="M41.518,43.948l15.901,7.931l-15.901,7.929V43.948 M41.518,41.948c-0.366,0-0.73,0.101-1.053,0.299
		c-0.589,0.364-0.947,1.008-0.947,1.701v15.859c0,0.693,0.358,1.336,0.947,1.701c0.321,0.199,0.687,0.299,1.053,0.299
		c0.305,0,0.61-0.07,0.893-0.21l15.901-7.929c0.679-0.338,1.107-1.032,1.107-1.79s-0.429-1.451-1.107-1.79l-15.901-7.931
		C42.129,42.018,41.823,41.948,41.518,41.948L41.518,41.948z"/>
</g>
<path fill="#4D4D4D" d="M86.363,34.129c0-1.76,0.028-1.386,0-4.219c-8.36-3.597-21.848-1.773-22.444-1.773s-0.914-0.363-0.914-0.843
	c0-0.479,2.604-8.631-1.058-21.921c-1.785,0-5.565,0.001-5.565,0.001L56.43,6.34c0.398,0.123,0.935,0.754,1.307,1.266
	c4.359,6.003,1.054,21.717,1.054,22.4c0,1.469,0.723,2.346,2.361,2.346C61.879,32.352,79.443,29.746,86.363,34.129z"/>
</svg>
