<?xml version="1.0" encoding="utf-8"?>
<!-- Generator: Adobe Illustrator 15.0.2, SVG Export Plug-In  -->
<!DOCTYPE svg PUBLIC "-//W3C//DTD SVG 1.1//EN" "http://www.w3.org/Graphics/SVG/1.1/DTD/svg11.dtd" [
	<!ENTITY ns_flows "http://ns.adobe.com/Flows/1.0/">
]>
<svg version="1.1"
	 xmlns="http://www.w3.org/2000/svg" xmlns:xlink="http://www.w3.org/1999/xlink" xmlns:a="http://ns.adobe.com/AdobeSVGViewerExtensions/3.0/"
	 x="0px" y="0px" width="92px" height="106px" viewBox="-0.5 0 92 106" overflow="visible" enable-background="new -0.5 0 92 106"
	 xml:space="preserve">
<defs>
</defs>
<path fill="#A1A1FF" d="M60.116,0H7.434C6.132,0,5.027,0.643,4.427,1.245L1.246,4.411C0.455,5.199,0,6.29,0,7.406v94.359
	C0,104.102,1.905,106,4.246,106h79.32c1.134,0,2.199-0.439,3.001-1.238l3.186-3.17l0.057-0.057l0.052-0.061
	c0.735-0.85,1.14-1.873,1.14-2.88V30.773c0-1.479-0.498-4.45-3.825-7.738C84.949,20.834,67.784,3.828,66.698,2.743
	C65.055,1.102,62.412,0,60.116,0L60.116,0z"/>
<path fill="#4D4D4D" d="M85.684,24.539c-2.333-2.305-19.455-19.269-20.486-20.3c-1.336-1.334-3.492-2.123-5.082-2.123
	c-1.589,0-52.682,0-52.682,0c-0.795,0-1.373,0.489-1.505,0.622L2.743,5.911C2.344,6.307,2.12,6.845,2.12,7.406v94.359
	c0,1.171,0.952,2.117,2.125,2.117h79.32c0.564,0,1.104-0.223,1.503-0.619l3.188-3.174c0.459-0.53,0.624-1.093,0.624-1.495
	c0,0,0-66.163,0-67.821C88.88,29.117,88.018,26.846,85.684,24.539z M23.1,91.303c0,1.617-1.312,2.928-2.93,2.928h-6.703
	c-1.619,0-2.931-1.311-2.931-2.928v-5.209c0-1.614,1.312-2.926,2.931-2.926h6.703c1.617,0,2.93,1.312,2.93,2.926V91.303z
	 M23.1,76.483c0,1.617-1.312,2.927-2.93,2.927h-6.703c-1.619,0-2.931-1.31-2.931-2.927v-5.209c0-1.614,1.312-2.926,2.931-2.926
	h6.703c1.617,0,2.93,1.312,2.93,2.926V76.483z M23.1,61.663c0,1.618-1.312,2.927-2.93,2.927h-6.703
	c-1.619,0-2.931-1.309-2.931-2.927v-5.208c0-1.615,1.312-2.926,2.931-2.926h6.703c1.617,0,2.93,1.311,2.93,2.926V61.663z
	 M23.1,46.844c0,1.617-1.312,2.926-2.93,2.926h-6.703c-1.619,0-2.931-1.309-2.931-2.926v-5.209c0-1.614,1.312-2.926,2.931-2.926
	h6.703c1.617,0,2.93,1.312,2.93,2.926V46.844z M23.1,32.023c0,1.617-1.312,2.926-2.93,2.926h-6.703
	c-1.619,0-2.931-1.309-2.931-2.926v-5.209c0-1.613,1.312-2.926,2.931-2.926h6.703c1.617,0,2.93,1.312,2.93,2.926V32.023z
	 M23.1,17.205c0,1.617-1.312,2.926-2.93,2.926h-6.703c-1.619,0-2.931-1.309-2.931-2.926v-5.209c0-1.614,1.312-2.925,2.931-2.925
	h6.703c1.617,0,2.93,1.311,2.93,2.925V17.205z M83.527,91.303c0,1.617-1.311,2.928-2.93,2.928h-6.703
	c-1.618,0-2.931-1.311-2.931-2.928v-5.209c0-1.614,1.312-2.926,2.931-2.926h6.703c1.619,0,2.93,1.312,2.93,2.926V91.303z
	 M83.527,76.483c0,1.617-1.311,2.927-2.93,2.927h-6.703c-1.618,0-2.931-1.31-2.931-2.927v-5.209c0-1.614,1.312-2.926,2.931-2.926
	h6.703c1.619,0,2.93,1.312,2.93,2.926V76.483z M83.527,61.663c0,1.618-1.311,2.927-2.93,2.927h-6.703
	c-1.618,0-2.931-1.309-2.931-2.927v-5.208c0-1.615,1.312-2.926,2.931-2.926h6.703c1.619,0,2.93,1.311,2.93,2.926V61.663z
	 M83.527,46.844c0,1.617-1.311,2.926-2.93,2.926h-6.703c-1.618,0-2.931-1.309-2.931-2.926v-5.209c0-1.614,1.312-2.926,2.931-2.926
	h6.703c1.619,0,2.93,1.312,2.93,2.926V46.844z M67.092,30.273v66.203H26.951V6.348c0,0,32.474,0.004,33.165,0.004
	s1.72,0.52,2.083,0.881s19.977,19.791,20.503,20.316c1.62,1.619,1.938,1.565,1.938,2.723C84.142,30.271,67.092,30.273,67.092,30.273
	z"/>
<path fill="#333333" d="M58.55,6.348c0.829,0,2.367,0.785,2.367,1.267c0,0.312,0,18.668,0,18.668l2.229,3.99h3.946l3.871,0.033
	h13.625c0,0,0.015,1.01,0,3.082c-13.392-0.141-20.808,2.117-24.623,2.117c-2.081,0-4.328-2.098-4.328-3.93
	c0-3.002,2.799-13.494,1.06-25.229C57.995,6.306,57.622,6.348,58.55,6.348z"/>
<ellipse fill="none" stroke="#4D4D4D" stroke-width="4" stroke-miterlimit="10" cx="47.244" cy="51.824" rx="15.902" ry="15.877"/>
<g>
	<path fill="#4D4D4D" d="M41.518,60.881c-0.183,0-0.365-0.05-0.526-0.149c-0.294-0.182-0.474-0.504-0.474-0.851V44.002
		c0-0.347,0.18-0.668,0.474-0.851c0.161-0.099,0.344-0.149,0.526-0.149c0.152,0,0.306,0.035,0.446,0.105l15.901,7.939
		c0.34,0.169,0.554,0.516,0.554,0.895s-0.214,0.726-0.554,0.895l-15.901,7.939C41.824,60.846,41.67,60.881,41.518,60.881z"/>
	<path fill="#4D4D4D" d="M41.518,44.002l15.901,7.939l-15.901,7.939V44.002 M41.518,42.002c-0.366,0-0.73,0.1-1.052,0.299
		c-0.59,0.365-0.948,1.008-0.948,1.701v15.879c0,0.693,0.358,1.336,0.948,1.701c0.321,0.198,0.686,0.299,1.052,0.299
		c0.306,0,0.611-0.07,0.894-0.21l15.901-7.939c0.678-0.339,1.106-1.032,1.106-1.79s-0.429-1.451-1.106-1.79l-15.901-7.939
		C42.129,42.072,41.824,42.002,41.518,42.002L41.518,42.002z"/>
</g>
<path fill="#4D4D4D" d="M86.363,34.17c0-1.762,0.028-1.387,0-4.223c-8.36-3.602-21.848-1.776-22.444-1.776s-0.914-0.364-0.914-0.844
	s2.604-8.642-1.058-21.948c-1.785,0-5.565,0.001-5.565,0.001l0.049,0.967c0.398,0.123,0.935,0.755,1.307,1.267
	c4.359,6.01,1.054,21.743,1.054,22.428c0,1.47,0.723,2.348,2.361,2.348C61.879,32.391,79.443,29.782,86.363,34.17z"/>
</svg>
