<?xml version="1.0" encoding="utf-8"?>
<!-- Generator: Adobe Illustrator 15.0.2, SVG Export Plug-In  -->
<!DOCTYPE svg PUBLIC "-//W3C//DTD SVG 1.1//EN" "http://www.w3.org/Graphics/SVG/1.1/DTD/svg11.dtd" [
	<!ENTITY ns_flows "http://ns.adobe.com/Flows/1.0/">
]>
<svg version="1.1"
	 xmlns="http://www.w3.org/2000/svg" xmlns:xlink="http://www.w3.org/1999/xlink" xmlns:a="http://ns.adobe.com/AdobeSVGViewerExtensions/3.0/"
	 x="0px" y="0px" width="56px" height="56px" viewBox="-0.1 0 56 56" overflow="visible" enable-background="new -0.1 0 56 56"
	 xml:space="preserve">
<defs>
</defs>
<path fill="#FFFFFF" d="M8.651,0C5.029,0,2.386,0.71,2.275,0.741C0.958,1.093,0.007,2.288,0,3.649v24.754
	c-0.005,0.801,0.217,1.584,0.782,2.15c0.563,0.568,1.348,0.894,2.152,0.894h11.147c0.787,0,1.564-0.319,2.135-0.878l0.359-0.351
	l0.356,0.355c0.359,0.357,0.779,0.837,1.318,1.508c0.641,0.796,3.18,5.354,3.573,6.521c0.694,2.055,2.035,3.387,4.065,5.402
	l0.437,0.433c1.573,1.567,2.654,5.927,3.061,7.567c0.094,0.374,0.175,0.697,0.243,0.956C30.132,54.806,31.709,56,33.648,56
	c2.354,0,5.036-1.731,6.238-4.028c0.749-1.432,1.921-5.135,1.375-7.607c-0.219-0.989-0.785-2.076-1.691-3.769
	c-0.736-1.381-1.555-2.915-1.832-3.91c-0.049-0.183-0.078-0.505-0.077-0.829l0.002-0.525l0.525,0.02
	c0.996,0.035,2.322,0.186,3.387,0.307l0.23,0.025c0.82,0.094,1.301,0.146,1.592,0.158l0.727,0.031
	c0.612,0.026,1.143,0.049,1.72,0.055l0,0c0,0,1.374,0.012,1.874,0.012c1.44,0,2.684-0.111,3.312-0.207
	c2.769-0.421,4.63-2.823,4.771-5.979c0.056-1.255-0.243-2.59-1.047-3.858l-0.14-0.221l0.098-0.242
	c0.327-0.809,0.491-1.695,0.486-2.635c-0.005-1.407-0.359-2.532-1.153-3.65l-0.16-0.227l0.104-0.256
	c0.315-0.787,0.481-1.653,0.491-2.573c0.017-1.479-0.372-2.771-1.188-3.949l-0.151-0.219l0.093-0.249
	c0.529-1.413,0.594-2.948,0.479-3.911c-0.183-1.533-1.083-4.249-5.059-5.198C46.53,2.056,39.436,0.56,34.063,0.56
	c-4.128,0-13.107,1.276-16.513,1.479l-0.235,0.015l-0.164-0.17c-0.338-0.354-0.762-0.622-1.227-0.776C13.711,0.372,11.264,0,8.651,0
	z"/>
<path fill="#FF0000" d="M33.648,53c-0.41,0-0.938-0.144-1.124-0.827c-0.06-0.227-0.138-0.538-0.228-0.897
	c-0.832-3.359-1.942-7.06-3.854-8.963l-0.442-0.438c-1.987-1.973-2.886-2.902-3.335-4.231c-0.512-1.52-3.218-6.374-4.078-7.442
	c-0.606-0.755-1.096-1.313-1.54-1.754l-3.451-2.442l-1.477,2.419L2.935,28.447L2.9,3.737C2.932,3.701,2.991,3.655,3.049,3.64
	C3.101,3.626,5.444,3,8.651,3c2.291,0,4.421,0.321,6.329,0.954l1.139,1.179l1.618-0.101c3.505-0.208,12.43-1.473,16.326-1.473
	c5.583,0,12.246,1.528,13.892,1.922c1.731,0.414,2.614,1.25,2.779,2.636c0.056,0.472,0.054,1.532-0.311,2.504l-0.641,1.721
	l1.042,1.506c0.462,0.668,0.664,1.35,0.654,2.208c-0.006,0.547-0.099,1.048-0.276,1.491l-0.714,1.765l1.106,1.565
	c0.438,0.616,0.6,1.138,0.603,1.929c0.003,0.551-0.087,1.054-0.268,1.5l-0.675,1.67l0.963,1.521c0.467,0.737,0.708,1.49,0.68,2.122
	c-0.076,1.708-0.987,2.943-2.32,3.146c-0.422,0.064-1.498,0.173-2.86,0.173c-0.473,0-1.734-0.011-1.842-0.012
	c-0.546-0.005-1.046-0.027-1.623-0.052l-0.727-0.031c-0.259-0.011-0.673-0.061-1.38-0.142l-0.243-0.027
	c-1.104-0.125-2.49-0.283-3.609-0.322l-3.619-0.135l-0.014,3.628c-0.001,0.428,0.028,1.053,0.179,1.615
	c0.374,1.341,1.241,2.968,2.081,4.542c0.77,1.438,1.281,2.418,1.411,3.009c0.312,1.411-0.442,4.307-1.104,5.569
	C36.482,52.007,34.743,53,33.648,53z"/>
<path fill="#333333" d="M15.287,3.018c0.347,0.114,0.604,0.408,0.675,0.765l0.066,0.341l0.347-0.014
	c4.007-0.14,13.664-1.537,17.688-1.537c5.142,0,12.17,1.483,14.122,1.95c2.153,0.514,3.306,1.652,3.522,3.479
	c0.16,1.321-0.209,3.027-0.839,3.881l-0.202,0.274l0.234,0.247c1.124,1.181,1.576,2.243,1.562,3.665
	c-0.013,1.088-0.315,2.049-0.874,2.782l-0.209,0.274l0.237,0.251c0.986,1.044,1.559,1.939,1.563,3.431
	c0.006,1.051-0.28,2.003-0.826,2.754l-0.188,0.26l0.207,0.244c0.724,0.846,1.571,2.157,1.507,3.599
	c-0.099,2.202-1.336,3.803-3.155,4.077c-0.597,0.093-1.758,0.187-3.007,0.187c-0.438,0-1.855-0.014-1.855-0.014
	c-0.548-0.004-1.044-0.026-1.654-0.053l-0.729-0.031c-0.247-0.01-0.775-0.071-1.436-0.145c-1.334-0.151-3.159-0.357-4.367-0.357
	c-0.817,0-1.238,0.09-1.45,0.311c-0.777,0.801-0.596,3-0.433,3.589c0.335,1.2,1.2,2.823,2.001,4.324
	c0.823,1.538,1.336,2.519,1.497,3.247c0.403,1.828-0.562,5.035-1.193,6.24c-0.821,1.57-2.901,2.948-4.45,2.948
	c-1.033,0-1.808-0.58-2.071-1.554c-0.066-0.246-0.143-0.553-0.23-0.91c-0.53-2.127-1.631-6.553-3.598-8.512l-0.44-0.437
	c-1.89-1.878-3.031-3.011-3.573-4.616c-0.469-1.387-3.137-6.174-3.912-7.138c-1.148-1.428-2.314-2.753-3.947-3.291L15.481,27.4
	l-0.122,0.397c-0.103,0.336-0.208,0.666-0.322,0.975c-0.147,0.396-0.531,0.662-0.955,0.662H2.935c-0.273,0-0.529-0.106-0.723-0.3
	c-0.188-0.189-0.296-0.451-0.294-0.719V3.66C1.92,3.205,2.356,2.803,2.803,2.684c0.024-0.007,2.515-0.67,5.849-0.67
	C11.05,2.014,13.282,2.352,15.287,3.018z M33.564,52.013l0.394-0.096c0.755-0.186,1.9-0.978,2.338-1.816
	c0.613-1.171,1.236-3.842,1.01-4.867c-0.098-0.448-0.59-1.391-1.304-2.729c-0.825-1.542-1.761-3.289-2.165-4.732
	c-0.319-1.148-0.201-4.266,0.478-5.311c0.436-0.672,0.976-0.879,1.353-0.936c0.533-0.08,1.206-0.121,1.999-0.121
	c1.767,0,3.708,0.197,4.87,0.314c0.458,0.046,0.785,0.078,0.918,0.081c0.254,0.005,0.591,0.02,0.954,0.036
	c0.494,0.021,1.035,0.045,1.476,0.049c0,0,1.4,0.012,1.834,0.012c0.717,0,2.158-0.078,2.704-0.162
	c0.989-0.15,1.387-1.259,1.427-2.163c0.048-1.073-0.769-2.358-1.77-2.661l-1.511-0.121c-0.271-0.023-0.518-0.148-0.692-0.356
	c-0.175-0.206-0.26-0.468-0.236-0.738c0.044-0.52,0.477-0.912,1.098-0.932h0.001c0.117,0,0.222,0.011,0.326,0.021
	c0.132,0.013,0.267,0.024,0.423,0.024c0.172,0,0.368-0.014,0.619-0.061c0.976-0.183,1.045-1.527,1.044-1.936
	c-0.006-1.156-0.604-2.022-1.826-2.647l-0.081-0.041l-1.472-0.059c-0.271-0.022-0.517-0.15-0.691-0.356
	c-0.176-0.206-0.259-0.469-0.236-0.739c0.044-0.521,0.487-0.929,1.08-0.929h0.001c0.231,0,0.836-0.019,1.439-0.196
	c0.969-0.288,1.061-1.599,1.066-1.995c0.014-1.3-0.712-2.347-1.884-2.616l-1.401-0.058c-0.56-0.048-0.977-0.538-0.93-1.093
	c0.044-0.513,0.471-0.896,1.039-0.933c0.072-0.005,0.142-0.006,0.211-0.006l0.299,0.003c0.308,0,0.646-0.027,1.044-0.222
	c1.102-0.539,0.909-2.467,0.883-2.686c-0.118-0.991-0.42-1.382-1.981-1.746C45.89,6.07,38.937,4.6,34.063,4.6
	c-4.726,0-13.378,1.381-17.289,1.532l-0.44,0.018l0.052,0.437c0.682,5.71,0.541,13.72-0.364,18.492l-0.068,0.36l0.352,0.104
	c2.474,0.737,4.057,2.706,5.104,4.008c0.896,1.112,3.717,6.173,4.254,7.761c0.39,1.156,1.348,2.105,3.086,3.828l0.438,0.437
	c2.369,2.363,3.515,6.978,4.131,9.46L33.564,52.013z"/>
</svg>
