<?xml version="1.0" encoding="utf-8"?>
<!-- Generator: Adobe Illustrator 15.0.2, SVG Export Plug-In  -->
<!DOCTYPE svg PUBLIC "-//W3C//DTD SVG 1.1//EN" "http://www.w3.org/Graphics/SVG/1.1/DTD/svg11.dtd" [
	<!ENTITY ns_flows "http://ns.adobe.com/Flows/1.0/">
]>
<svg version="1.1"
	 xmlns="http://www.w3.org/2000/svg" xmlns:xlink="http://www.w3.org/1999/xlink" xmlns:a="http://ns.adobe.com/AdobeSVGViewerExtensions/3.0/"
	 x="0px" y="0px" width="56px" height="56px" viewBox="-0.047 0 56 56" overflow="visible" enable-background="new -0.047 0 56 56"
	 xml:space="preserve">
<defs>
</defs>
<path fill="#FFFFFF" d="M8.701,56c-3.622,0-6.266-0.71-6.376-0.741C1.008,54.907,0.007,53.712,0,52.351V27.596
	c-0.005-0.801,0.267-1.584,0.832-2.15c0.563-0.568,1.348-0.893,2.152-0.893h11.147c0.787,0,1.564,0.32,2.135,0.878l0.359,0.351
	l0.356-0.354c0.359-0.358,0.779-0.837,1.318-1.508c0.641-0.796,3.18-5.354,3.573-6.521c0.694-2.055,2.035-3.387,4.065-5.403
	l0.437-0.432c1.573-1.567,2.654-5.926,3.061-7.567c0.094-0.374,0.175-0.697,0.243-0.956C30.182,1.195,31.759,0,33.698,0
	c2.354,0,5.036,1.732,6.238,4.028c0.749,1.432,1.921,5.135,1.375,7.607c-0.219,0.99-0.785,2.077-1.691,3.769
	c-0.736,1.381-1.555,2.915-1.832,3.91c-0.049,0.183-0.078,0.505-0.077,0.829l0.002,0.525l0.525-0.019
	c0.996-0.035,2.322-0.186,3.387-0.307l0.23-0.025c0.82-0.093,1.301-0.146,1.592-0.158l0.727-0.03
	c0.612-0.027,1.143-0.049,1.72-0.055l0,0c0,0,1.374-0.012,1.874-0.012c1.44,0,2.684,0.111,3.312,0.207
	c2.769,0.421,4.68,2.823,4.821,5.979c0.056,1.255-0.293,2.59-1.097,3.858l-0.14,0.221l0.098,0.242
	c0.327,0.809,0.491,1.695,0.486,2.635c-0.005,1.407-0.359,2.532-1.153,3.65l-0.16,0.227l0.104,0.256
	c0.315,0.787,0.481,1.653,0.491,2.573c0.017,1.479-0.372,2.771-1.188,3.949l-0.151,0.219l0.093,0.249
	c0.529,1.413,0.594,2.948,0.479,3.911c-0.183,1.533-1.083,4.249-5.059,5.198c-2.124,0.509-9.219,2.005-14.591,2.005
	c-4.128,0-13.107-1.276-16.513-1.479l-0.235-0.015l-0.164,0.17c-0.338,0.354-0.762,0.622-1.227,0.776
	C13.761,55.628,11.313,56,8.701,56z"/>
<path fill="#39B44A" d="M8.701,53c-3.207,0-5.551-0.626-5.574-0.632c-0.08-0.021-0.145-0.069-0.177-0.105V27.596l11.182-0.043
	l0.397,0.375l1.033,1.927l3.535-2.301c0.447-0.446,0.937-1.002,1.541-1.755c0.86-1.069,3.566-5.923,4.078-7.443
	c0.448-1.328,1.347-2.257,3.337-4.232l0.433-0.429c1.919-1.911,3.028-5.611,3.862-8.979c0.088-0.352,0.166-0.662,0.231-0.912
	C32.761,3.144,33.288,3,33.698,3c1.095,0,2.834,0.994,3.58,2.42c0.661,1.262,1.415,4.157,1.104,5.568
	c-0.13,0.591-0.642,1.571-1.406,3c-0.846,1.585-1.713,3.211-2.077,4.521c-0.159,0.592-0.188,1.217-0.188,1.643l0.014,3.626
	l3.622-0.131c1.11-0.039,2.5-0.197,3.617-0.324l0.221-0.024c0.717-0.081,1.132-0.132,1.384-0.143l0.73-0.03
	c0.582-0.026,1.08-0.047,1.623-0.052c0.112-0.001,1.374-0.012,1.846-0.012c1.362,0,2.438,0.108,2.859,0.173
	c1.334,0.203,2.245,1.438,2.321,3.147c0.028,0.63-0.213,1.383-0.679,2.119l-0.964,1.523l0.675,1.669
	c0.181,0.446,0.271,0.949,0.268,1.495c-0.003,0.796-0.165,1.317-0.6,1.929l-1.109,1.57l0.718,1.774
	c0.174,0.434,0.267,0.935,0.272,1.48c0.01,0.86-0.192,1.542-0.654,2.21l-1.042,1.506l0.639,1.717
	c0.366,0.976,0.368,2.036,0.312,2.51c-0.164,1.384-1.047,2.221-2.775,2.634c-1.648,0.395-8.312,1.923-13.895,1.923
	c-3.896,0-12.821-1.265-16.335-1.474l-1.609-0.1l-1.126,1.166C13.122,52.679,10.992,53,8.701,53z"/>
<path fill="#333333" d="M8.701,53.986c-3.334,0-5.824-0.663-5.849-0.67c-0.446-0.119-0.883-0.521-0.885-0.977V27.585
	c-0.002-0.269,0.105-0.53,0.294-0.719c0.193-0.194,0.449-0.3,0.723-0.3h11.147c0.424,0,0.808,0.266,0.955,0.662
	c0.114,0.309,0.22,0.639,0.322,0.975l0.122,0.397l0.395-0.129c1.633-0.538,2.799-1.863,3.947-3.291
	c0.775-0.963,3.443-5.751,3.912-7.138c0.542-1.605,1.684-2.738,3.573-4.616l0.44-0.437c1.967-1.958,3.067-6.385,3.598-8.512
	c0.088-0.357,0.164-0.664,0.23-0.91c0.264-0.973,1.038-1.553,2.071-1.553c1.549,0,3.629,1.377,4.45,2.948
	c0.631,1.206,1.597,4.412,1.193,6.24c-0.161,0.729-0.674,1.708-1.497,3.247c-0.801,1.501-1.666,3.125-2.001,4.324
	c-0.163,0.589-0.345,2.788,0.433,3.588c0.212,0.221,0.633,0.311,1.45,0.311c1.208,0,3.033-0.206,4.367-0.357
	c0.66-0.074,1.188-0.135,1.436-0.145l0.729-0.031c0.61-0.027,1.106-0.049,1.654-0.054c0,0,1.418-0.013,1.855-0.013
	c1.249,0,2.41,0.094,3.007,0.186c1.819,0.275,3.057,1.875,3.155,4.077c0.064,1.441-0.783,2.752-1.507,3.599l-0.207,0.244l0.188,0.26
	c0.546,0.751,0.832,1.703,0.826,2.754c-0.005,1.491-0.577,2.387-1.563,3.431l-0.237,0.251l0.209,0.274
	c0.559,0.733,0.861,1.694,0.874,2.782c0.015,1.422-0.438,2.484-1.562,3.665l-0.234,0.247l0.202,0.274
	c0.63,0.854,0.999,2.56,0.839,3.881c-0.217,1.826-1.369,2.965-3.522,3.479c-1.952,0.467-8.98,1.95-14.122,1.95
	c-4.024,0-13.682-1.397-17.688-1.537l-0.347-0.014l-0.066,0.341c-0.07,0.356-0.328,0.65-0.675,0.765
	C13.332,53.648,11.1,53.986,8.701,53.986z M33.368,4.964c-0.616,2.482-1.762,7.097-4.131,9.46l-0.438,0.437
	c-1.738,1.723-2.696,2.672-3.086,3.828c-0.537,1.589-3.358,6.649-4.254,7.761c-1.048,1.302-2.631,3.271-5.104,4.008l-0.352,0.104
	l0.068,0.36c0.905,4.772,1.046,12.782,0.364,18.492l-0.052,0.437l0.44,0.018C20.735,50.02,29.388,51.4,34.113,51.4
	c4.873,0,11.826-1.471,13.646-1.896c1.562-0.364,1.863-0.755,1.981-1.746c0.026-0.219,0.219-2.146-0.883-2.686
	c-0.397-0.194-0.736-0.222-1.044-0.222l-0.299,0.003c-0.069,0-0.139-0.001-0.211-0.006c-0.568-0.037-0.995-0.42-1.039-0.933
	c-0.047-0.555,0.37-1.045,0.93-1.093l1.401-0.058c1.172-0.27,1.897-1.316,1.884-2.616c-0.006-0.396-0.098-1.707-1.066-1.995
	c-0.604-0.178-1.208-0.196-1.439-0.196h-0.001c-0.593,0-1.036-0.407-1.08-0.929c-0.022-0.271,0.061-0.533,0.236-0.739
	c0.175-0.206,0.42-0.334,0.691-0.356l1.472-0.059l0.081-0.041c1.223-0.625,1.82-1.491,1.826-2.647
	c0.001-0.408-0.068-1.753-1.044-1.936c-0.251-0.047-0.447-0.061-0.619-0.061c-0.156,0-0.291,0.012-0.423,0.024
	c-0.104,0.01-0.209,0.021-0.326,0.021h-0.001c-0.621-0.02-1.054-0.412-1.098-0.932c-0.023-0.27,0.062-0.532,0.236-0.738
	c0.175-0.208,0.421-0.333,0.692-0.356l1.511-0.121c1.001-0.303,1.817-1.588,1.77-2.661c-0.04-0.904-0.438-2.013-1.427-2.163
	c-0.546-0.083-1.987-0.162-2.704-0.162c-0.434,0-1.834,0.012-1.834,0.012c-0.44,0.004-0.981,0.027-1.476,0.049
	c-0.363,0.016-0.7,0.031-0.954,0.036c-0.133,0.002-0.46,0.035-0.918,0.081c-1.162,0.118-3.104,0.314-4.87,0.314
	c-0.793,0-1.466-0.041-1.999-0.121c-0.377-0.056-0.917-0.263-1.353-0.935c-0.679-1.045-0.797-4.163-0.478-5.311
	c0.404-1.443,1.34-3.19,2.165-4.732c0.714-1.337,1.206-2.28,1.304-2.728c0.227-1.025-0.396-3.697-1.01-4.868
	c-0.438-0.839-1.583-1.631-2.338-1.816l-0.394-0.097L33.368,4.964z"/>
</svg>
