<?xml version="1.0" encoding="utf-8"?>
<!-- Generator: Adobe Illustrator 15.0.2, SVG Export Plug-In  -->
<!DOCTYPE svg PUBLIC "-//W3C//DTD SVG 1.1//EN" "http://www.w3.org/Graphics/SVG/1.1/DTD/svg11.dtd" [
	<!ENTITY ns_flows "http://ns.adobe.com/Flows/1.0/">
]>
<svg version="1.1"
	 xmlns="http://www.w3.org/2000/svg" xmlns:xlink="http://www.w3.org/1999/xlink" xmlns:a="http://ns.adobe.com/AdobeSVGViewerExtensions/3.0/"
	 x="0px" y="0px" width="56px" height="56px" viewBox="0 0 56 56" overflow="visible" enable-background="new 0 0 56 56"
	 xml:space="preserve">
<defs>
</defs>
<path fill="#FFFFFF" d="M28,56C12.561,56,0,43.439,0,28C0,12.56,12.561,0,28,0s28,12.56,28,28C56,43.439,43.439,56,28,56z
	 M15.262,25.929c-0.115,0.684-0.174,1.375-0.174,2.071c0,7.121,5.792,12.914,12.912,12.914c0.688,0,1.383-0.059,2.072-0.174
	L15.262,25.929z M40.74,30.071c0.115-0.688,0.174-1.384,0.174-2.071c0-7.121-5.793-12.915-12.914-12.915
	c-0.688,0-1.384,0.059-2.072,0.173L40.74,30.071z"/>
<path fill="#333333" d="M28,53.997C13.666,53.997,2.003,42.335,2.003,28C2.003,13.666,13.666,2.003,28,2.003
	c14.335,0,25.997,11.663,25.997,25.997C53.997,42.335,42.335,53.997,28,53.997z M14.316,22.151
	c-0.824,1.895-1.231,3.891-1.231,5.849c0,8.226,6.69,14.917,14.915,14.917c1.984,0,4.01-0.42,5.866-1.215L14.316,22.151z
	 M22.134,14.298l19.548,19.546c0.006,0.007,0.015,0.014,0.021,0.02c0.796-1.856,1.215-3.877,1.215-5.864
	c0-8.226-6.691-14.917-14.917-14.917C26.012,13.083,23.988,13.502,22.134,14.298z"/>
<path fill="#FF0000" d="M28,51.994C14.77,51.994,4.006,41.23,4.006,28S14.77,4.006,28,4.006S51.994,14.77,51.994,28
	S41.23,51.994,28,51.994z M14.264,19.953c-0.823,0-1.464,0.615-1.733,1.226c-0.948,2.148-1.449,4.508-1.449,6.822
	c0,9.33,7.59,16.921,16.919,16.921c2.294,0,4.634-0.493,6.768-1.428c0.541-0.236,0.968-0.795,1.086-1.422
	c0.123-0.65-0.093-1.309-0.591-1.807L15.483,20.486C15.043,20.045,14.577,19.953,14.264,19.953z M28,11.08
	c-2.353,0-4.744,0.516-6.919,1.494c-0.462,0.207-0.983,0.719-1.108,1.395c-0.099,0.539,0.078,1.081,0.484,1.488l19.808,19.805
	c0.551,0.551,1.13,0.666,1.519,0.666c0.712,0,1.368-0.395,1.633-0.984c0.984-2.181,1.505-4.581,1.505-6.942
	C44.921,18.67,37.33,11.08,28,11.08z"/>
</svg>
