<?xml version="1.0" encoding="utf-8"?>
<!-- Generator: Adobe Illustrator 15.0.2, SVG Export Plug-In  -->
<!DOCTYPE svg PUBLIC "-//W3C//DTD SVG 1.1//EN" "http://www.w3.org/Graphics/SVG/1.1/DTD/svg11.dtd" [
	<!ENTITY ns_flows "http://ns.adobe.com/Flows/1.0/">
]>
<svg version="1.1"
	 xmlns="http://www.w3.org/2000/svg" xmlns:xlink="http://www.w3.org/1999/xlink" xmlns:a="http://ns.adobe.com/AdobeSVGViewerExtensions/3.0/"
	 x="0px" y="0px" width="110px" height="126px" viewBox="-0.812 -0.866 110 126"
	 overflow="visible" enable-background="new -0.812 -0.866 110 126" xml:space="preserve">
<defs>
</defs>
<g>
	<path fill="#FFFFFF" d="M63.982,124.268c-0.391,0-0.778-0.057-1.152-0.17L7.565,107.427c-1.702-0.514-2.846-2.053-2.846-3.83
		V63.846L3.1,63.471C1.275,63.051,0,61.448,0,59.574v-8.825c0-1.838,1.244-3.433,3.026-3.88l34.762-8.729
		c-1.413-4.572-2.973-9.319-4.369-13.572c-1.884-5.738-3.498-10.655-4.265-13.61c-0.291-1.121-0.083-2.312,0.571-3.267
		c0.658-0.957,1.694-1.58,2.845-1.712c3.162-0.363,35.475-4.802,41.768-5.917C74.571,0.02,74.804,0,75.034,0
		c1.027,0,2.004,0.388,2.75,1.093c0.917,0.869,1.373,2.134,1.222,3.387c-0.913,7.542,0.031,25.945,3.088,36.184l22.82,3.104
		c1.973,0.268,3.461,1.972,3.461,3.963v8.826c0,1.62-0.966,3.069-2.46,3.691l-2.047,0.854v36.557c0,1.382-0.698,2.647-1.867,3.385
		l-35.886,22.608C65.474,124.056,64.736,124.268,63.982,124.268z"/>
</g>
<line fill="none" stroke="#4D4D4D" stroke-width="4" stroke-linecap="round" stroke-linejoin="round" stroke-miterlimit="10" x1="63.982" y1="73.481" x2="63.982" y2="120.268"/>
<line display="none" fill="none" stroke="#333333" stroke-width="4" stroke-linecap="round" stroke-linejoin="round" stroke-miterlimit="10" x1="63.982" y1="77.424" x2="8.72" y2="64.664"/>
<line display="none" fill="none" stroke="#333333" stroke-width="4" stroke-linecap="round" stroke-linejoin="round" stroke-miterlimit="10" x1="63.982" y1="77.424" x2="99.868" y2="62.438"/>
<polygon display="none" fill="#333333" stroke="#333333" stroke-width="3" stroke-linecap="round" stroke-linejoin="round" stroke-miterlimit="10" points="
	42.219,87.918 33.106,85.841 33.106,66.127 42.219,67.87 "/>
<polygon fill="#4D4D4D" stroke="#4D4D4D" stroke-width="3" stroke-linecap="round" stroke-linejoin="round" stroke-miterlimit="10" points="
	40.219,85.918 30.106,83.178 30.106,56.08 39.315,52.641 50.219,54.716 40.219,58.438 "/>
<path fill="none" stroke="#4D4D4D" stroke-width="4" stroke-linecap="round" stroke-linejoin="round" stroke-miterlimit="10" d="
	M79.099,44.294C75.418,34.711,73.913,13.27,75.035,4c-6.338,1.124-38.69,5.572-42.01,5.952c1.473,5.67,6.415,19.542,9.806,31.045
	L4,50.749v8.825l4.72,1.09v42.933l55.263,16.671l35.886-22.608V58.438l4.507-1.882V47.73L79.099,44.294z"/>
<polyline fill="none" stroke="#4D4D4D" stroke-width="4" stroke-linecap="round" stroke-linejoin="round" stroke-miterlimit="10" points="
	4,50.749 63.982,63.492 104.375,47.73 "/>
<polyline fill="none" stroke="#4D4D4D" stroke-width="4" stroke-linecap="round" stroke-linejoin="round" stroke-miterlimit="10" points="
	63.982,63.492 63.982,73.424 8.72,60.664 "/>
<line fill="none" stroke="#4D4D4D" stroke-width="4" stroke-linecap="round" stroke-linejoin="round" stroke-miterlimit="10" x1="63.982" y1="73.424" x2="99.868" y2="58.438"/>
<line fill="none" stroke="#4D4D4D" stroke-width="3" stroke-linecap="round" stroke-linejoin="round" stroke-miterlimit="10" x1="40.219" y1="47.077" x2="73.342" y2="53.07"/>
<path fill="#FFFFFF" stroke="#4D4D4D" stroke-width="3" stroke-linecap="round" stroke-linejoin="round" stroke-miterlimit="10" d="
	M44.723,47.862c-3.04-12.147-9.914-31.044-11.697-37.911C36.345,9.571,68.697,5.123,75.035,4
	c-1.255,10.368,0.773,35.971,5.459,43.168c-6.41,1.735-11.189,5.178-11.189,5.178S49.08,48.722,44.723,47.862z"/>
<g>
	<g>
		<path fill="#4D4D4D" stroke="#4D4D4D" stroke-linecap="round" stroke-linejoin="round" stroke-miterlimit="10" d="M50.768,16.18
			c3.311-1.903,6.86-3.802,10.803-5.663c0.026,0.781,0.055,1.564,0.088,2.35c-1.6,0.75-3.14,1.506-4.631,2.264
			c-1.271,0.643-2.432,1.238-3.706,1.794c0.002,0.014,0.005,0.029,0.007,0.043c1.305-0.075,2.604-0.089,3.859-0.064
			c1.564,0.032,3.127,0.064,4.687,0.096c0.05,0.768,0.104,1.536,0.167,2.307c-3.571-0.198-7.165-0.395-10.784-0.591
			C51.098,17.869,50.936,17.024,50.768,16.18z"/>
		<path fill="#4D4D4D" stroke="#4D4D4D" stroke-linecap="round" stroke-linejoin="round" stroke-miterlimit="10" d="M58.639,30.705
			c-3.178,0.85-5.468-0.547-5.981-3.372c-0.526-2.839,1.375-5.11,4.281-5.867c3.057-0.791,5.518,0.469,5.86,3.315
			C63.184,27.759,61.316,29.991,58.639,30.705z M57.317,23.756c-1.959,0.52-3.159,1.767-2.897,3.224
			c0.264,1.472,1.828,1.941,3.708,1.436c1.751-0.47,3.105-1.696,2.891-3.204C60.812,23.719,59.251,23.244,57.317,23.756z"/>
		<path fill="#4D4D4D" stroke="#4D4D4D" stroke-linecap="round" stroke-linejoin="round" stroke-miterlimit="10" d="M62.236,33.205
			c-0.208-0.873-0.399-1.746-0.577-2.62c0.609-0.165,1.22-0.329,1.83-0.494c0.494,2.488,1.12,4.979,1.918,7.455
			c-0.614,0.161-1.229,0.321-1.848,0.482c-0.275-0.879-0.531-1.759-0.769-2.64c-2.608,0.689-5.242,1.375-7.922,2.059
			C54.7,36.724,54.538,36,54.382,35.275C57.026,34.589,59.639,33.899,62.236,33.205z"/>
		<path fill="#4D4D4D" stroke="#4D4D4D" stroke-linecap="round" stroke-linejoin="round" stroke-miterlimit="10" d="M62.242,46.204
			c-0.476-1.163-0.915-2.333-1.321-3.508c-0.812,0.199-1.629,0.398-2.453,0.599c0.42,1.312,0.874,2.619,1.369,3.92
			c-0.677,0.156-1.359,0.313-2.047,0.471c-0.707-2.019-1.325-4.05-1.879-6.088c3.43-0.84,6.756-1.679,10.012-2.521
			c0.696,1.979,1.508,3.945,2.455,5.891c-0.635,0.154-1.272,0.31-1.916,0.464c-0.573-1.231-1.097-2.473-1.574-3.719
			c-0.693,0.174-1.391,0.349-2.093,0.522c0.429,1.174,0.894,2.344,1.398,3.507C63.548,45.896,62.897,46.05,62.242,46.204z"/>
	</g>
</g>
<path fill="none" stroke="#FFFFFF" stroke-width="3" stroke-linecap="round" stroke-linejoin="round" stroke-miterlimit="10" d="
	M35.662,81.542c-3.425,0-3.341-7.69,0-7.69"/>
</svg>
