<?xml version="1.0" encoding="utf-8"?>
<!-- Generator: Adobe Illustrator 15.0.2, SVG Export Plug-In  -->
<!DOCTYPE svg PUBLIC "-//W3C//DTD SVG 1.1//EN" "http://www.w3.org/Graphics/SVG/1.1/DTD/svg11.dtd" [
	<!ENTITY ns_flows "http://ns.adobe.com/Flows/1.0/">
]>
<svg version="1.1"
	 xmlns="http://www.w3.org/2000/svg" xmlns:xlink="http://www.w3.org/1999/xlink" xmlns:a="http://ns.adobe.com/AdobeSVGViewerExtensions/3.0/"
	 x="0px" y="0px" width="110px" height="122px" viewBox="-0.5 -0.5 110 122"
	 overflow="visible" enable-background="new -0.5 -0.5 110 122" xml:space="preserve">
<defs>
</defs>
<g>
	<path fill="#C59B6D" d="M63.761,121c-0.389,0-0.775-0.057-1.148-0.17L7.539,104.195c-1.696-0.513-2.836-2.048-2.836-3.821V61.708
		l-1.614-0.374C1.271,60.915,0,59.316,0,57.446V48.64c0-1.834,1.24-3.425,3.016-3.871l34.642-8.711
		c-1.408-4.562-6.84-22.175-7.604-25.124c-0.29-1.119-0.083-2.307,0.569-3.26c0.655-0.955,1.688-1.577,2.835-1.708
		c3.15-0.362,33.352-4.792,39.623-5.904C73.313,0.02,73.545,0,73.774,0c1.024,0,1.997,0.387,2.74,1.091
		c0.914,0.867,1.369,2.13,1.218,3.38c-0.91,7.526,1.031,23.889,4.077,34.105l23.741,3.097c1.966,0.268,3.449,1.968,3.449,3.955
		v8.807c0,1.617-0.963,3.063-2.451,3.684l-2.04,0.853v37.479c0,1.379-0.696,2.642-1.86,3.377l-36.762,20.56
		C65.247,120.788,64.513,121,63.761,121z"/>
</g>
<line fill="none" stroke="#4D4D4D" stroke-width="4" stroke-linecap="round" stroke-linejoin="round" stroke-miterlimit="10" x1="63.761" y1="71.323" x2="63.761" y2="117.009"/>
<path fill="#4D4D4D" d="M50.326,51.128l-10.865-2.071c-0.27-0.05-0.549-0.027-0.808,0.069l-9.178,3.432
	c-0.586,0.219-0.974,0.778-0.974,1.401v27.04c0,0.675,0.453,1.267,1.106,1.443l10.078,2.734c0.13,0.035,0.262,0.053,0.394,0.053
	c0.325,0,0.646-0.106,0.911-0.308c0.371-0.282,0.589-0.722,0.589-1.188V57.352L50.57,54c0.63-0.234,1.026-0.859,0.97-1.527
	C51.482,51.803,50.987,51.253,50.326,51.128z M35.539,77.87c0.828,0,1.5,0.67,1.5,1.496s-0.672,1.497-1.5,1.497
	c-2.372,0-4.028-2.179-4.028-5.298c0-1.271,0.298-2.482,0.839-3.412c0.734-1.263,1.867-1.958,3.189-1.958
	c0.828,0,1.5,0.671,1.5,1.497s-0.672,1.497-1.5,1.497c-0.548,0-1.028,1.109-1.028,2.376C34.511,76.673,34.903,77.87,35.539,77.87z"
	/>
<path fill="none" stroke="#4D4D4D" stroke-width="4" stroke-linecap="round" stroke-linejoin="round" stroke-miterlimit="10" d="
	M78.825,42.198c-3.668-9.562-6.168-28.957-5.05-38.208C67.46,5.112,37.219,9.551,33.911,9.93c1.468,5.658,5.393,17.5,8.771,28.979
	L3.986,48.64v8.807l4.703,1.087v41.841l55.071,16.635l36.762-20.56V56.312l4.491-1.878v-8.807L78.825,42.198z"/>
<polyline fill="none" stroke="#4D4D4D" stroke-width="4" stroke-linecap="round" stroke-linejoin="round" stroke-miterlimit="10" points="
	3.986,48.64 63.761,61.355 105.014,45.628 "/>
<polyline fill="none" stroke="#4D4D4D" stroke-width="4" stroke-linecap="round" stroke-linejoin="round" stroke-miterlimit="10" points="
	63.761,61.355 63.761,71.266 8.689,58.533 "/>
<line fill="none" stroke="#4D4D4D" stroke-width="4" stroke-linecap="round" stroke-linejoin="round" stroke-miterlimit="10" x1="63.761" y1="71.266" x2="100.522" y2="56.312"/>
<line fill="none" stroke="#4D4D4D" stroke-width="4" stroke-linecap="round" stroke-linejoin="round" stroke-miterlimit="10" x1="40.06" y1="44.907" x2="73.067" y2="50.888"/>
<path fill="none" stroke="#4D4D4D" stroke-width="4" stroke-linecap="round" stroke-linejoin="round" stroke-miterlimit="10" d="
	M44.568,45.759c-3.03-12.121-8.88-28.977-10.657-35.829c3.308-0.379,33.549-4.818,39.864-5.939
	c-1.25,10.346,1.771,33.894,6.44,41.076c-6.388,1.731-11.151,5.167-11.151,5.167S48.91,46.617,44.568,45.759z"/>
<path fill="#4D4D4D" d="M58.602,30.12c3.067-0.823,4.874-3.417,4.495-6.45c-0.285-2.455-2.043-3.98-4.588-3.98
	c-0.59,0-1.21,0.083-1.845,0.248c-3.309,0.867-5.162,3.449-4.612,6.426c0.456,2.517,2.203,4.021,4.676,4.021
	C57.321,30.385,57.952,30.296,58.602,30.12z M54.786,25.956c-0.231-1.33,0.791-2.523,2.604-3.04
	c0.459-0.131,0.896-0.197,1.297-0.197c0.651,0,1.777,0.188,1.999,1.448c0.264,1.49-1.12,2.584-2.607,3.008
	c-0.465,0.133-0.907,0.201-1.313,0.201C55.977,27.375,54.993,27.129,54.786,25.956z"/>
<path fill="#4D4D4D" d="M68.7,43.639c-0.93-1.844-1.77-3.8-2.495-5.815c-0.089-0.244-0.35-0.386-0.597-0.313
	c-3.292,0.854-6.642,1.7-9.957,2.512c-0.131,0.032-0.243,0.115-0.312,0.231s-0.087,0.254-0.052,0.384
	c0.592,2.18,1.211,4.178,1.894,6.107c0.072,0.203,0.264,0.333,0.472,0.333c0.037,0,0.074-0.004,0.111-0.013l2.057-0.472
	c0.141-0.033,0.261-0.125,0.328-0.253c0.068-0.127,0.077-0.278,0.025-0.414c-0.418-1.076-0.822-2.208-1.206-3.369l1.485-0.362
	c0.381,1.058,0.784,2.098,1.203,3.097c0.095,0.225,0.338,0.354,0.575,0.293l1.955-0.462c0.145-0.034,0.267-0.132,0.332-0.264
	c0.066-0.134,0.069-0.289,0.009-0.424c-0.427-0.955-0.836-1.943-1.219-2.945l1.114-0.278c0.457,1.136,0.95,2.256,1.467,3.33
	c0.103,0.213,0.343,0.322,0.568,0.271l1.913-0.464c0.148-0.036,0.271-0.138,0.336-0.275C68.771,43.935,68.769,43.774,68.7,43.639z"
	/>
<path fill="#4D4D4D" d="M61.87,18.763c0.007,0.001,0.015,0,0.02,0c0.276,0,0.5-0.223,0.5-0.499c0-0.062-0.011-0.121-0.031-0.175
	c-0.053-0.719-0.101-1.438-0.142-2.154c-0.015-0.26-0.228-0.465-0.489-0.47l-4.674-0.095c-0.515-0.01-1.043-0.014-1.563-0.01
	c0.422-0.209,0.845-0.422,1.276-0.64l0.346-0.175c1.571-0.796,3.085-1.532,4.626-2.25c0.183-0.084,0.296-0.27,0.289-0.47
	c-0.028-0.781-0.053-1.56-0.074-2.337c-0.005-0.168-0.094-0.323-0.237-0.411c-0.143-0.089-0.322-0.098-0.475-0.027
	c-3.615,1.685-7.167,3.538-10.855,5.666c-0.187,0.107-0.283,0.321-0.24,0.531c0.172,0.841,0.338,1.683,0.499,2.523
	c0.043,0.225,0.234,0.392,0.464,0.404c3.604,0.195,7.182,0.392,10.734,0.588C61.852,18.762,61.861,18.763,61.87,18.763z"/>
<path fill="#4D4D4D" d="M62.899,37.099c0.067,0.211,0.264,0.348,0.477,0.348c0.042,0,0.084-0.005,0.126-0.017l1.835-0.48
	c0.133-0.035,0.246-0.124,0.312-0.244s0.078-0.263,0.036-0.393c-0.763-2.324-1.407-4.808-1.917-7.381
	c-0.026-0.137-0.108-0.255-0.227-0.328c-0.118-0.074-0.262-0.094-0.395-0.058l-1.812,0.492c-0.255,0.069-0.411,0.323-0.359,0.58
	c0.146,0.721,0.302,1.439,0.469,2.16c-2.419,0.649-4.853,1.295-7.317,1.938c-0.259,0.067-0.419,0.327-0.363,0.587
	c0.156,0.725,0.317,1.451,0.484,2.175c0.03,0.132,0.112,0.245,0.228,0.313c0.115,0.072,0.255,0.092,0.384,0.058
	c2.501-0.639,4.959-1.28,7.39-1.925C62.452,35.649,62.669,36.374,62.899,37.099z"/>
</svg>
